<?xml version="1.0" encoding="utf-8"?>
<!-- Generator: Adobe Illustrator 18.0.0, SVG Export Plug-In . SVG Version: 6.00 Build 0)  -->
<!DOCTYPE svg PUBLIC "-//W3C//DTD SVG 1.0//EN" "http://www.w3.org/TR/2001/REC-SVG-20010904/DTD/svg10.dtd">
<svg version="1.0" id="Ebene_1" xmlns="http://www.w3.org/2000/svg" xmlns:xlink="http://www.w3.org/1999/xlink" x="0px" y="0px"
	 viewBox="0 0 57.9 75" enable-background="new 0 0 57.9 75" xml:space="preserve">
<path fill="#3C4250" d="M49.3,32.1H8.6v-4.3h40.7V32.1z"/>
<path fill="#3C4250" d="M49.3,38.6H8.6v-4.3h40.7V38.6z"/>
<path fill="#3C4250" d="M49.3,10.7H27.9V6.4h21.4V10.7z"/>
<path fill="#3C4250" d="M49.3,47.1H27.9v-4.3h21.4V47.1z"/>
<path fill="#3C4250" d="M49.3,53.6H27.9v-4.3h21.4V53.6z"/>
<path fill="#3C4250" d="M23.6,23.6h-15V6.4h15V23.6z"/>
<path fill="#3C4250" d="M23.6,60h-15V42.9h15V60z"/>
<path fill="#3C4250" d="M49.3,60H27.9v-4.3h21.4V60z"/>
<path fill="#3C4250" d="M49.3,17.1H27.9v-4.3h21.4V17.1z"/>
<path fill="#3C4250" d="M49.3,23.6H27.9v-4.3h21.4V23.6z"/>
<path fill="#3C4250" d="M54.8,0H3C1.6,0,0,1.6,0,3v69c0,1.4,2.1,3,3,3h51.8c1.5,0,3-1.7,3-3V3C57.9,1.3,56,0,54.8,0L54.8,0z
	 M28.9,72.5c-1.4,0-2.5-1.1-2.5-2.4c0-1.3,1.1-2.4,2.5-2.4c1.4,0,2.5,1.1,2.5,2.4C31.4,71.4,30.3,72.5,28.9,72.5L28.9,72.5z
	 M53.6,64.3H4.3c-0.2,0,0.1,0.1,0,0v-60h49.3V64.3z"/>
</svg>
