<?xml version="1.0" encoding="utf-8"?>
<!-- Generator: Adobe Illustrator 18.0.0, SVG Export Plug-In . SVG Version: 6.00 Build 0)  -->
<!DOCTYPE svg PUBLIC "-//W3C//DTD SVG 1.0//EN" "http://www.w3.org/TR/2001/REC-SVG-20010904/DTD/svg10.dtd">
<svg version="1.0" id="Ebene_1" xmlns="http://www.w3.org/2000/svg" xmlns:xlink="http://www.w3.org/1999/xlink" x="0px" y="0px"
	 width="57px" height="74px" viewBox="0 0 57 74" enable-background="new 0 0 57 74" xml:space="preserve">
<g>
	<rect x="9" y="28" fill="#3C4250" width="40" height="4"/>
	<rect x="9" y="34" fill="#3C4250" width="40" height="4"/>
	<rect x="28" y="7" fill="#3C4250" width="21" height="4"/>
	<rect x="28" y="43" fill="#3C4250" width="21" height="4"/>
	<rect x="28" y="49" fill="#3C4250" width="21" height="4"/>
	<rect x="9" y="7" fill="#3C4250" width="14" height="17"/>
	<rect x="9" y="43" fill="#3C4250" width="14" height="17"/>
	<rect x="28" y="55" fill="#3C4250" width="21" height="5"/>
	<rect x="28" y="13" fill="#3C4250" width="21" height="4"/>
	<rect x="28" y="19" fill="#3C4250" width="21" height="5"/>
	<path fill="#3C4250" d="M54,0H3C1.6,0,0,1.5,0,3V71c0,1.4,2.1,3,3,3h51c1.5,0,3-1.7,3-3V3C57,1.3,55.1,0,54,0z M28.5,71.6
		c-1.3,0-2.4-1.1-2.4-2.4s1.1-2.4,2.4-2.4c1.3,0,2.4,1.1,2.4,2.4S29.8,71.6,28.5,71.6z M53,64H4V5h49V64z"/>
</g>
</svg>
