<?xml version="1.0" encoding="utf-8"?>
<!-- Generator: Adobe Illustrator 18.0.0, SVG Export Plug-In . SVG Version: 6.00 Build 0)  -->
<!DOCTYPE svg PUBLIC "-//W3C//DTD SVG 1.0//EN" "http://www.w3.org/TR/2001/REC-SVG-20010904/DTD/svg10.dtd">
<svg version="1.0" id="Ebene_1" xmlns="http://www.w3.org/2000/svg" xmlns:xlink="http://www.w3.org/1999/xlink" x="0px" y="0px"
	 viewBox="0 0 75 55.7" enable-background="new 0 0 75 55.7" xml:space="preserve">
<path fill="#1D1D1B" d="M57.9,23.6H40.7V6.4h17.1V23.6z"/>
<path fill="#1D1D1B" d="M68.6,10.7H60V6.4h8.6V10.7z"/>
<path fill="#1D1D1B" d="M68.6,17.2H60v-4.3h8.6V17.2z"/>
<path fill="#1D1D1B" d="M68.6,23.6H60v-4.3h8.6V23.6z"/>
<path fill="#1D1D1B" d="M68.6,36.5H40.7v-4.3h27.9V36.5z"/>
<path fill="#1D1D1B" d="M68.6,30H40.7v-4.3h27.9V30z"/>
<path fill="#1D1D1B" d="M68.6,42.9H40.7v-4.3h27.9V42.9z"/>
<path fill="#1D1D1B" d="M34.3,23.6H6.4v-4.3h27.9V23.6z"/>
<path fill="#1D1D1B" d="M34.3,30H6.4v-4.3h27.9V30z"/>
<path fill="#1D1D1B" d="M34.3,36.5H17.1v-4.3h17.1V36.5z"/>
<path fill="#1D1D1B" d="M34.3,42.9H17.1v-4.3h17.1V42.9z"/>
<path fill="#1D1D1B" d="M15,17.2H6.4V6.4H15V17.2z"/>
<path fill="#1D1D1B" d="M15,47.2H6.4v-15H15V47.2z"/>
<path fill="#1D1D1B" d="M34.3,49.3H17.1V45h17.1V49.3z"/>
<path fill="#1D1D1B" d="M34.3,10.7H17.1V6.4h17.1V10.7z"/>
<path fill="#1D1D1B" d="M34.3,17.2H17.1v-4.3h17.1V17.2z"/>
<path fill="#1D1D1B" d="M68.6,49.3H40.7V45h27.9V49.3z"/>
<path fill="#1D1D1B" d="M75,0H0v55.7h75V0z M4.3,4.3h32.1v47.1H4.3V4.3z M70.7,4.3v47.1H38.6V4.3H70.7z"/>
</svg>
