<?xml version="1.0" encoding="utf-8"?>
<!-- Generator: Adobe Illustrator 18.1.0, SVG Export Plug-In . SVG Version: 6.00 Build 0)  -->
<!DOCTYPE svg PUBLIC "-//W3C//DTD SVG 1.0//EN" "http://www.w3.org/TR/2001/REC-SVG-20010904/DTD/svg10.dtd" [
	<!ENTITY ns_extend "http://ns.adobe.com/Extensibility/1.0/">
	<!ENTITY ns_ai "http://ns.adobe.com/AdobeIllustrator/10.0/">
	<!ENTITY ns_graphs "http://ns.adobe.com/Graphs/1.0/">
	<!ENTITY ns_vars "http://ns.adobe.com/Variables/1.0/">
	<!ENTITY ns_imrep "http://ns.adobe.com/ImageReplacement/1.0/">
	<!ENTITY ns_sfw "http://ns.adobe.com/SaveForWeb/1.0/">
	<!ENTITY ns_custom "http://ns.adobe.com/GenericCustomNamespace/1.0/">
	<!ENTITY ns_adobe_xpath "http://ns.adobe.com/XPath/1.0/">
]>
<svg version="1.0" id="Ebene_1" xmlns:x="&ns_extend;" xmlns:i="&ns_ai;" xmlns:graph="&ns_graphs;"
	 xmlns="http://www.w3.org/2000/svg" xmlns:xlink="http://www.w3.org/1999/xlink" x="0px" y="0px" width="75px" height="55.7px"
	 viewBox="-462 473.3 75 55.7" enable-background="new -462 473.3 75 55.7" xml:space="preserve">
<metadata>
	<sfw  xmlns="&ns_sfw;">
		<slices></slices>
		<sliceSourceBounds  width="75" height="55.7" y="0" x="0" bottomLeftOrigin="true"></sliceSourceBounds>
	</sfw>
</metadata>
<path fill="#3C4250" d="M-404.1,496.9h-17.2v-17.2h17.1v17.2H-404.1z"/>
<path fill="#3C4250" d="M-393.4,484h-8.6v-4.3h8.6V484z"/>
<path fill="#3C4250" d="M-393.4,490.5h-8.6v-4.3h8.6V490.5z"/>
<path fill="#3C4250" d="M-393.4,496.9h-8.6v-4.3h8.6V496.9z"/>
<path fill="#3C4250" d="M-393.4,509.8h-27.9v-4.3h27.9V509.8z"/>
<path fill="#3C4250" d="M-393.4,503.3h-27.9V499h27.9V503.3z"/>
<path fill="#3C4250" d="M-393.4,516.2h-27.9v-4.3h27.9V516.2z"/>
<path fill="#3C4250" d="M-427.7,496.9h-27.9v-4.3h27.9V496.9z"/>
<path fill="#3C4250" d="M-427.7,503.3h-27.9V499h27.9V503.3z"/>
<path fill="#3C4250" d="M-427.7,509.8h-17.2v-4.3h17.1L-427.7,509.8L-427.7,509.8z"/>
<path fill="#3C4250" d="M-427.7,516.2h-17.2v-4.3h17.1L-427.7,516.2L-427.7,516.2z"/>
<path fill="#3C4250" d="M-447,490.5h-8.6v-10.8h8.6V490.5z"/>
<path fill="#3C4250" d="M-447,520.5h-8.6v-15h8.6V520.5z"/>
<path fill="#3C4250" d="M-427.7,522.6h-17.2v-4.3h17.1L-427.7,522.6L-427.7,522.6z"/>
<path fill="#3C4250" d="M-427.7,484h-17.2v-4.3h17.1L-427.7,484L-427.7,484z"/>
<path fill="#3C4250" d="M-427.7,490.5h-17.2v-4.3h17.1L-427.7,490.5L-427.7,490.5z"/>
<path fill="#3C4250" d="M-393.4,522.6h-27.9v-4.3h27.9V522.6z"/>
<path fill="#3C4250" d="M-387,473.3h-75V529h75V473.3z M-457.7,477.6h32.1v47.1h-32.1V477.6z M-391.3,477.6v47.1h-32.1v-47.1H-391.3
	z"/>
</svg>
