<?xml version="1.0" encoding="utf-8"?>
<!-- Generator: Adobe Illustrator 18.0.0, SVG Export Plug-In . SVG Version: 6.00 Build 0)  -->
<!DOCTYPE svg PUBLIC "-//W3C//DTD SVG 1.0//EN" "http://www.w3.org/TR/2001/REC-SVG-20010904/DTD/svg10.dtd">
<svg version="1.0" id="Ebene_1" xmlns="http://www.w3.org/2000/svg" xmlns:xlink="http://www.w3.org/1999/xlink" x="0px" y="0px"
	 width="75px" height="54px" viewBox="0 0 75 54" enable-background="new 0 0 75 54" xml:space="preserve">
<g>
	<rect x="41" y="7" fill="#3C4250" width="17" height="16"/>
	<rect x="60" y="7" fill="#3C4250" width="9" height="4"/>
	<rect x="60" y="13" fill="#3C4250" width="9" height="4"/>
	<rect x="60" y="19" fill="#3C4250" width="9" height="4"/>
	<rect x="41" y="31" fill="#3C4250" width="28" height="5"/>
	<rect x="41" y="25" fill="#3C4250" width="28" height="4"/>
	<rect x="41" y="38" fill="#3C4250" width="28" height="4"/>
	<rect x="7" y="19" fill="#3C4250" width="28" height="4"/>
	<rect x="7" y="25" fill="#3C4250" width="28" height="4"/>
	<rect x="18" y="31" fill="#3C4250" width="17" height="5"/>
	<rect x="18" y="38" fill="#3C4250" width="17" height="4"/>
	<rect x="7" y="7" fill="#3C4250" width="8" height="10"/>
	<rect x="7" y="31" fill="#3C4250" width="8" height="15"/>
	<rect x="18" y="44" fill="#3C4250" width="17" height="4"/>
	<rect x="18" y="7" fill="#3C4250" width="17" height="4"/>
	<rect x="18" y="13" fill="#3C4250" width="17" height="4"/>
	<rect x="41" y="44" fill="#3C4250" width="28" height="4"/>
	<path fill="#3C4250" d="M0,0v54h75V0H0z M37,50H5V4h32V50z M71,50H39V4h32V50z"/>
</g>
</svg>
