<?xml version="1.0" encoding="utf-8"?>
<!-- Generator: Adobe Illustrator 18.1.0, SVG Export Plug-In . SVG Version: 6.00 Build 0)  -->
<!DOCTYPE svg PUBLIC "-//W3C//DTD SVG 1.0//EN" "http://www.w3.org/TR/2001/REC-SVG-20010904/DTD/svg10.dtd" [
	<!ENTITY ns_extend "http://ns.adobe.com/Extensibility/1.0/">
	<!ENTITY ns_ai "http://ns.adobe.com/AdobeIllustrator/10.0/">
	<!ENTITY ns_graphs "http://ns.adobe.com/Graphs/1.0/">
	<!ENTITY ns_vars "http://ns.adobe.com/Variables/1.0/">
	<!ENTITY ns_imrep "http://ns.adobe.com/ImageReplacement/1.0/">
	<!ENTITY ns_sfw "http://ns.adobe.com/SaveForWeb/1.0/">
	<!ENTITY ns_custom "http://ns.adobe.com/GenericCustomNamespace/1.0/">
	<!ENTITY ns_adobe_xpath "http://ns.adobe.com/XPath/1.0/">
]>
<svg version="1.0" id="Ebene_1" xmlns:x="&ns_extend;" xmlns:i="&ns_ai;" xmlns:graph="&ns_graphs;"
	 xmlns="http://www.w3.org/2000/svg" xmlns:xlink="http://www.w3.org/1999/xlink" x="0px" y="0px" width="72.9px" height="75px"
	 viewBox="-463 463 72.9 75" enable-background="new -463 463 72.9 75" xml:space="preserve">
<metadata>
	<sfw  xmlns="&ns_sfw;">
		<slices></slices>
		<sliceSourceBounds  width="72.9" height="74.9" y="0.1" x="0" bottomLeftOrigin="true"></sliceSourceBounds>
	</sfw>
</metadata>
<path fill="#3C4250" d="M-400.5,499.3v-25.9l-43.7-10.4v39.6c-1.4-0.5-3.5-1.1-5.1-1.1c-7.6,0-13.7,6.2-13.7,13.7
	s6.1,13.7,13.7,13.7c7.5,0,13.4-6.2,13.4-13.8v-37.5l27.6,5.7l-0.5,13c-0.7-0.1-1.3,0-2.1,0c-11.3,0-20.2,9.8-20.2,21.1
	c0,11.3,9.2,20.5,20.5,20.5c11.3,0,20.5-9.2,20.5-20.5c0-7.1-2.8-13.3-8.3-17L-400.5,499.3z M-410.6,533.2c-8.7,0-15.7-7-15.7-15.7
	s7-15.7,15.7-15.7c8.7,0,15.7,7,15.7,15.7C-394.9,526.1-401.9,533.1-410.6,533.2L-410.6,533.2z"/>
<path fill="#3C4250" d="M-415.1,527.6l12.5-9.8l-12.5-9V527.6z"/>
</svg>
