<?xml version="1.0" encoding="utf-8"?>
<!-- Generator: Adobe Illustrator 18.0.0, SVG Export Plug-In . SVG Version: 6.00 Build 0)  -->
<!DOCTYPE svg PUBLIC "-//W3C//DTD SVG 1.0//EN" "http://www.w3.org/TR/2001/REC-SVG-20010904/DTD/svg10.dtd">
<svg version="1.0" id="Ebene_1" xmlns="http://www.w3.org/2000/svg" xmlns:xlink="http://www.w3.org/1999/xlink" x="0px" y="0px"
	 viewBox="0 0 72.9 75" enable-background="new 0 0 72.9 75" xml:space="preserve">
<path fill="#1D1D1B" d="M62.5,36.3V10.4L18.8,0v39.6c-1.4-0.5-3.5-1.1-5.1-1.1C6.1,38.5,0,44.7,0,52.2c0,7.5,6.1,13.7,13.7,13.7
	c7.5,0,13.4-6.2,13.4-13.8V14.6l27.6,5.7l-0.5,13c-0.7-0.1-1.3,0-2.1,0c-11.3,0-20.2,9.8-20.2,21.1c0,11.3,9.2,20.5,20.5,20.5
	c11.3,0,20.5-9.2,20.5-20.5c0-7.1-2.8-13.3-8.3-17L62.5,36.3z M52.4,70.2c-8.7,0-15.7-7-15.7-15.7c0-8.7,7-15.7,15.7-15.7
	c8.7,0,15.7,7,15.7,15.7C68.1,63.1,61.1,70.1,52.4,70.2L52.4,70.2z"/>
<path fill="#1D1D1B" d="M47.9,64.6l12.5-9.8l-12.5-9V64.6z"/>
</svg>
