<?xml version="1.0" encoding="utf-8"?>
<!-- Generator: Adobe Illustrator 18.1.0, SVG Export Plug-In . SVG Version: 6.00 Build 0)  -->
<!DOCTYPE svg PUBLIC "-//W3C//DTD SVG 1.0//EN" "http://www.w3.org/TR/2001/REC-SVG-20010904/DTD/svg10.dtd">
<svg version="1.0" id="Ebene_1" xmlns="http://www.w3.org/2000/svg" xmlns:xlink="http://www.w3.org/1999/xlink" x="0px" y="0px"
	 width="76px" height="76px" viewBox="0 0 75.8 76.3" enable-background="new 0 0 75.8 76.3" xml:space="preserve">
<g>
	<path fill="#3C4250" d="M66.5,38.2l-2.2-1.3V11.1l-45-10.4v39.6c-1-0.5-3.1-1.1-4.7-1.1C7,39.2,1,45.3,1,52.9
		c0,7.5,6.3,13.7,14,13.7c7.6,0,13.4-6.2,13.4-13.8V15.3l28,5.7L56,34c-0.8-0.1-1.3,0-2.1,0c-11.4,0-20.4,9.8-20.4,21.1
		c0,11.3,9.3,20.5,20.7,20.5c11.4,0,20.8-9.2,20.8-20.5C75,48,72.1,41.9,66.5,38.2z M54.2,70.8c-8.7,0-15.8-7-15.8-15.7
		c0-8.7,7.1-15.7,15.8-15.7c8.7,0,15.8,7,15.9,15.7C70.1,63.8,63,70.8,54.2,70.8z"/>
	<polygon fill="#3C4250" points="50.3,64.3 63,54.5 50.3,45.5 	"/>
</g>
</svg>
