<?xml version="1.0" encoding="utf-8"?>
<!-- Generator: Adobe Illustrator 18.1.0, SVG Export Plug-In . SVG Version: 6.00 Build 0)  -->
<!DOCTYPE svg PUBLIC "-//W3C//DTD SVG 1.0//EN" "http://www.w3.org/TR/2001/REC-SVG-20010904/DTD/svg10.dtd">
<svg version="1.0" id="Ebene_1" xmlns="http://www.w3.org/2000/svg" xmlns:xlink="http://www.w3.org/1999/xlink" x="0px" y="0px"
	 width="75px" height="52px" viewBox="-442 307 75 52" enable-background="new -442 307 75 52" xml:space="preserve">
<g>
	<path fill="#3C4250" d="M-382,328.1c-8.4,0-15,6.8-15,15.4s6.6,15.4,15,15.4s15-6.8,15-15.4S-373.6,328.1-382,328.1L-382,328.1z
		 M-382,355.1c-6.5,0-11.2-4.8-11.2-11.6c0-6.8,4.7-11.6,11.2-11.6c6.6,0,11.2,4.8,11.2,11.6C-370.8,350.2-375.4,355.1-382,355.1
		L-382,355.1z"/>
	<path fill="#3C4250" d="M-386.3,350.3l10.7-6.5l-10.7-8.7V350.3z"/>
	<path fill="#3C4250" d="M-390.6,320v4.3h-2.1V320h-4.3v4.3h-2.1v-6.5h-4.3v6.5h-2.1v-13h-4.3v13h-2.1V320h-4.3v4.3h-2.1v-6.5h-4.3
		v6.5h-2.1v-2.2h-4.3v2.1h-2.1V307h-4.5v17.3h-2.1v-4.3h-4.3v10.8h4.3v-4.3h2.1v15.1h4.3v-15.1h2.1v2.1h4.3v-2.1h2.1v6.5h4.3v-6.5
		h2.1v4.3h4.3v-4.3h2.1v13h4.3v-12.9h2.1v6.5h4.3v-6.5h2.3v4.3h4.3v-4.3h2.1v4.3h4.3V320H-390.6z"/>
</g>
</svg>
