<?xml version="1.0" encoding="utf-8"?>
<!-- Generator: Adobe Illustrator 18.0.0, SVG Export Plug-In . SVG Version: 6.00 Build 0)  -->
<!DOCTYPE svg PUBLIC "-//W3C//DTD SVG 1.0//EN" "http://www.w3.org/TR/2001/REC-SVG-20010904/DTD/svg10.dtd">
<svg version="1.0" id="Ebene_1" xmlns="http://www.w3.org/2000/svg" xmlns:xlink="http://www.w3.org/1999/xlink" x="0px" y="0px"
	 viewBox="0 0 75 51.5" enable-background="new 0 0 75 51.5" xml:space="preserve" width="76px" height="53px">
<path fill="#3C4250" d="M60,20.9c-8.4,0-15,6.7-15,15.3c0,8.6,6.6,15.3,15,15.3c8.4,0,15-6.7,15-15.3C75,27.6,68.4,20.9,60,20.9
	L60,20.9z M60,47.6c-6.5,0-11.2-4.8-11.2-11.5c0-6.7,4.7-11.5,11.2-11.5c6.6,0,11.2,4.8,11.2,11.5C71.2,42.8,66.6,47.6,60,47.6
	L60,47.6z M60,47.6"/>
<path fill="#3C4250" d="M55.7,42.9l10.7-6.4l-10.7-8.6V42.9z"/>
<path fill="#3C4250" d="M51.4,12.9v4.3h-2.1v-4.3H45v4.3h-2.1v-6.4h-4.3v6.4l-2.1,0V4.3h-4.3v12.9l-2.1,0v-4.3l-4.3,0v4.3h-2.1v-6.4
	h-4.3v6.4h-2.1V15h-4.3v2.1h-2.1V0L6.4,0v17.1H4.3v-4.3l-4.3,0v10.7l4.3,0v-4.3h2.1v15l4.3,0v-15h2.1v2.1h4.3v-2.1h2.1v6.4l4.3,0
	v-6.4h2.1v4.3l4.3,0v-4.3l2.1,0v12.9h4.3V19.3l2.1,0v6.4h4.3v-6.4H45v4.3h4.3v-4.3h2.1v4.3h4.3V12.9H51.4z"/>
</svg>
