<?xml version="1.0" encoding="utf-8"?>
<!-- Generator: Adobe Illustrator 18.0.0, SVG Export Plug-In . SVG Version: 6.00 Build 0)  -->
<!DOCTYPE svg PUBLIC "-//W3C//DTD SVG 1.0//EN" "http://www.w3.org/TR/2001/REC-SVG-20010904/DTD/svg10.dtd">
<svg version="1.0" id="Ebene_1" xmlns="http://www.w3.org/2000/svg" xmlns:xlink="http://www.w3.org/1999/xlink" x="0px" y="0px"
	 width="75px" height="49px" viewBox="0 0 75 49" enable-background="new 0 0 75 49" xml:space="preserve">
<polygon fill="#3C4250" points="71,20 71,24 67,24 67,17 62,17 62,24 58,24 58,15 53,15 53,24 49,24 49,6 45,6 45,24 40,24 40,17 
	36,17 36,24 31,24 31,15 27,15 27,24 23,24 23,20 18,20 18,24 14,24 14,0 9,0 9,24 5,24 5,17 0,17 0,33 5,33 5,26 9,26 9,49 14,49 
	14,26 18,26 18,31 23,31 23,26 27,26 27,35 31,35 31,26 36,26 36,33 40,33 40,26 45,26 45,44 49,44 49,26 53,26 53,35 58,35 58,26 
	62,26 62,33 67,33 67,26 71,26 71,31 75,31 75,20 "/>
</svg>
