<?xml version="1.0" encoding="utf-8"?>
<!-- Generator: Adobe Illustrator 18.1.0, SVG Export Plug-In . SVG Version: 6.00 Build 0)  -->
<!DOCTYPE svg PUBLIC "-//W3C//DTD SVG 1.0//EN" "http://www.w3.org/TR/2001/REC-SVG-20010904/DTD/svg10.dtd" [
	<!ENTITY ns_extend "http://ns.adobe.com/Extensibility/1.0/">
	<!ENTITY ns_ai "http://ns.adobe.com/AdobeIllustrator/10.0/">
	<!ENTITY ns_graphs "http://ns.adobe.com/Graphs/1.0/">
	<!ENTITY ns_vars "http://ns.adobe.com/Variables/1.0/">
	<!ENTITY ns_imrep "http://ns.adobe.com/ImageReplacement/1.0/">
	<!ENTITY ns_sfw "http://ns.adobe.com/SaveForWeb/1.0/">
	<!ENTITY ns_custom "http://ns.adobe.com/GenericCustomNamespace/1.0/">
	<!ENTITY ns_adobe_xpath "http://ns.adobe.com/XPath/1.0/">
]>
<svg version="1.0" id="Ebene_1" xmlns:x="&ns_extend;" xmlns:i="&ns_ai;" xmlns:graph="&ns_graphs;"
	 xmlns="http://www.w3.org/2000/svg" xmlns:xlink="http://www.w3.org/1999/xlink" x="0px" y="0px" width="75px" height="48.5px"
	 viewBox="-462 476.5 75 48.5" enable-background="new -462 476.5 75 48.5" xml:space="preserve">
<metadata>
	<sfw  xmlns="&ns_sfw;">
		<slices></slices>
		<sliceSourceBounds  width="75" height="48.6" y="-0.1" x="0" bottomLeftOrigin="true"></sliceSourceBounds>
	</sfw>
</metadata>
<path fill="#3C4250" d="M-448.8,525v-22h4.4v4.4h4.4V503h4.4v8.8h4.4V503h4.4v6.6h4.4V503h4.4v17.6h4.4V503h4.4v8.8h4.4V503h4.4v6.6
	h4.4V503h4.4v4.4h4.6v-11h-4.4v4.4h-4.4v-6.6h-4.4v6.6h-4.4V492h-4.4v8.8h-4.4v-17.7h-4.4v17.6h-4.4v-6.6h-4.4v6.6h-4.4v-8.8h-4.4
	v8.8h-4.4v-4.4h-4.4v4.4h-4.4v-24.2h-4.6v24.3h-4.4v-6.6h-4.4v15.4h4.4V503h4.4v22.1"/>
</svg>
