<?xml version="1.0" encoding="utf-8"?>
<!-- Generator: Adobe Illustrator 18.0.0, SVG Export Plug-In . SVG Version: 6.00 Build 0)  -->
<!DOCTYPE svg PUBLIC "-//W3C//DTD SVG 1.0//EN" "http://www.w3.org/TR/2001/REC-SVG-20010904/DTD/svg10.dtd">
<svg version="1.0" id="Ebene_1" xmlns="http://www.w3.org/2000/svg" xmlns:xlink="http://www.w3.org/1999/xlink" x="0px" y="0px"
	 viewBox="0 0 75 48.5" enable-background="new 0 0 75 48.5" xml:space="preserve">
<path fill="#1D1D1B" d="M13.2,48.5V26.5h4.4v4.4h4.4v-4.4h4.4v8.8h4.4v-8.8h4.4v6.6h4.4v-6.6h4.4v17.6h4.4V26.5h4.4v8.8h4.4v-8.8
	h4.4v6.6h4.4v-6.6h4.4v4.4H75v-11h-4.4v4.4h-4.4v-6.6h-4.4v6.6h-4.4v-8.8h-4.4v8.8h-4.4V6.6h-4.4v17.6h-4.4v-6.6h-4.4v6.6h-4.4v-8.8
	h-4.4v8.8h-4.4v-4.4h-4.4v4.4h-4.4V0H8.8v24.3H4.4v-6.6H0v15.4h4.4v-6.6h4.4v22.1"/>
</svg>
