<?xml version="1.0" encoding="utf-8"?>
<!-- Generator: Adobe Illustrator 18.1.0, SVG Export Plug-In . SVG Version: 6.00 Build 0)  -->
<!DOCTYPE svg PUBLIC "-//W3C//DTD SVG 1.0//EN" "http://www.w3.org/TR/2001/REC-SVG-20010904/DTD/svg10.dtd" [
	<!ENTITY ns_extend "http://ns.adobe.com/Extensibility/1.0/">
	<!ENTITY ns_ai "http://ns.adobe.com/AdobeIllustrator/10.0/">
	<!ENTITY ns_graphs "http://ns.adobe.com/Graphs/1.0/">
	<!ENTITY ns_vars "http://ns.adobe.com/Variables/1.0/">
	<!ENTITY ns_imrep "http://ns.adobe.com/ImageReplacement/1.0/">
	<!ENTITY ns_sfw "http://ns.adobe.com/SaveForWeb/1.0/">
	<!ENTITY ns_custom "http://ns.adobe.com/GenericCustomNamespace/1.0/">
	<!ENTITY ns_adobe_xpath "http://ns.adobe.com/XPath/1.0/">
]>
<svg version="1.0" id="Ebene_1" xmlns:x="&ns_extend;" xmlns:i="&ns_ai;" xmlns:graph="&ns_graphs;"
	 xmlns="http://www.w3.org/2000/svg" xmlns:xlink="http://www.w3.org/1999/xlink" x="0px" y="0px" width="53.6px" height="75px"
	 viewBox="-472 463 53.6 75" enable-background="new -472 463 53.6 75" xml:space="preserve">
<metadata>
	<sfw  xmlns="&ns_sfw;">
		<slices></slices>
		<sliceSourceBounds  width="53.6" height="75" y="0" x="0" bottomLeftOrigin="true"></sliceSourceBounds>
	</sfw>
</metadata>
<path fill="#3C4250" d="M-439,498.6c-1.3-1.8-3.2-2.9-5.4-2.6c-0.2-0.5-1.6-6-1.6-6s3.3-3.5,3.9-4.4c2.8-5.3,3-9.5,1.3-13.7
	c-0.6-1.5-2.1-2.9-3.6-2.9c-1.1,0-2.1,1.1-2.6,2.4c-1.9,3.8-3,10.8-2,15.6c0,0,0.1,1.2-0.8,2.5c-1.9,2.4-3.9,5.1-4.7,8.6
	c-0.9,4-0.2,7.7,1.9,10.6c2.3,3.3,5.6,4.9,9.8,4.4c0.8,4.2,1.3,6.8,0.2,9.3c-0.4,0.9,0,0.5-0.4,0.6c-0.4,0-1.6-0.4-3,0
	c0.3-1.3,3-1.5,3-3c0-2.2-2.4-3.6-4.3-3.6c-3.2,0.2-3.4,4-3.4,4c0,1.3,0.4,2.6,1.1,3.5c0.9,1.1,2.4,2,4.1,2c2.1,0,4.1-0.9,4.9-4.4
	c0.8-2.9-0.6-7.5-0.8-9c2.1-1.1,3.9-4.4,4.1-6.6C-436.9,503.4-437.6,500.6-439,498.6L-439,498.6z M-445,474.1
	c0.2-0.4,0.6-0.7,0.9-0.7c0.2,0,0.6,0.2,0.8,0.4c0.8,0.4,0.9,1.3,0.9,2.6c-0.2,3.3-2.4,6.1-3.7,7.5
	C-446.6,480.9-446.5,476.3-445,474.1L-445,474.1z M-450.4,508.7c-1.3-1.5-1.9-3.7-1.7-6c0.4-3.5,1.4-4.6,3.1-6.8
	c0.4-0.4,1-1.4,1.2-1.8c0.7,0.4,1.6,0.9,1.8,1.8c-2.3,1.1-3.6,5.2-3.4,8.1c0,1.3,0.4,2.2,0.9,3.1c0.2,0.2,0.4,0.4,0.6,0.4
	c0.2,0,0.6-0.2,0.6-0.4c0.2-0.2,0.2-0.7,0-0.9c-0.2-0.2-0.2-0.4-0.2-0.9c-0.2-2,0.9-3.5,2.3-4.2c0.2,1.3,1.5,8.2,1.7,9.7
	C-446.1,511.8-448.7,510.9-450.4,508.7L-450.4,508.7z M-442,510.1c-0.4-1.5-0.6-3.3-0.9-5.3c-0.2-1.3-0.4-2.9-0.8-4.2
	c2.4,0,3.2,2.4,3.4,3.3C-439.7,506.3-440.3,508.7-442,510.1L-442,510.1z"/>
<path fill="#3C4250" d="M-421.4,463H-469c-2.4,0-3,0.5-3,3v69c0,2.5,0.6,3,3,3h47.6c2.4,0,3-0.5,3-3v-69
	C-418.4,463.5-419,463-421.4,463L-421.4,463z M-446.3,535.9c-1.7,0-2.1-1.3-2.1-2.1c0-1.2,0.9-2.1,2.1-2.1c1.3,0,2.1,0.7,2.1,2.1
	C-444.2,534.9-445,535.9-446.3,535.9C-446.3,535.9-445.1,535.9-446.3,535.9z M-420.6,527.3c0,2.2-2,2-2.1,2.1h-45
	c-0.2,0-2.1,0.6-2.1-2.1v-62.2c0-0.2-0.2,0,0,0h36.4h12.9c0,15,0,15,0,15v47.2H-420.6z"/>
</svg>
