<?xml version="1.0" encoding="utf-8"?>
<!-- Generator: Adobe Illustrator 18.0.0, SVG Export Plug-In . SVG Version: 6.00 Build 0)  -->
<!DOCTYPE svg PUBLIC "-//W3C//DTD SVG 1.0//EN" "http://www.w3.org/TR/2001/REC-SVG-20010904/DTD/svg10.dtd">
<svg version="1.0" id="Ebene_1" xmlns="http://www.w3.org/2000/svg" xmlns:xlink="http://www.w3.org/1999/xlink" x="0px" y="0px"
	 viewBox="0 0 53.6 75" enable-background="new 0 0 53.6 75" xml:space="preserve">
<path fill="#1D1D1B" d="M33,35.6c-1.3-1.8-3.2-2.9-5.4-2.6C27.4,32.5,26,27,26,27s3.3-3.5,3.9-4.4c2.8-5.3,3-9.5,1.3-13.7
	C30.6,7.4,29.1,6,27.6,6c-1.1,0-2.1,1.1-2.6,2.4C23.1,12.2,22,19.2,23,24c0,0,0.1,1.2-0.8,2.5c-1.9,2.4-3.9,5.1-4.7,8.6
	c-0.9,4-0.2,7.7,1.9,10.6c2.3,3.3,5.6,4.9,9.8,4.4c0.8,4.2,1.3,6.8,0.2,9.3c-0.4,0.9,0,0.5-0.4,0.6c-0.4,0-1.6-0.4-3,0
	c0.3-1.3,3-1.5,3-3c0-2.2-2.4-3.6-4.3-3.6c-3.2,0.2-3.4,4-3.4,4c0,1.3,0.4,2.6,1.1,3.5c0.9,1.1,2.4,2,4.1,2c2.1,0,4.1-0.9,4.9-4.4
	c0.8-2.9-0.6-7.5-0.8-9c2.1-1.1,3.9-4.4,4.1-6.6C35.1,40.4,34.4,37.6,33,35.6L33,35.6z M27,11.1c0.2-0.4,0.6-0.7,0.9-0.7
	c0.2,0,0.6,0.2,0.8,0.4c0.8,0.4,0.9,1.3,0.9,2.6c-0.2,3.3-2.4,6.1-3.7,7.5C25.4,17.9,25.5,13.3,27,11.1L27,11.1z M21.6,45.7
	c-1.3-1.5-1.9-3.7-1.7-6c0.4-3.5,1.4-4.6,3.1-6.8c0.4-0.4,1-1.4,1.2-1.8c0.7,0.4,1.6,0.9,1.8,1.8c-2.3,1.1-3.6,5.2-3.4,8.1
	c0,1.3,0.4,2.2,0.9,3.1c0.2,0.2,0.4,0.4,0.6,0.4c0.2,0,0.6-0.2,0.6-0.4c0.2-0.2,0.2-0.7,0-0.9c-0.2-0.2-0.2-0.4-0.2-0.9
	c-0.2-2,0.9-3.5,2.3-4.2c0.2,1.3,1.5,8.2,1.7,9.7C25.9,48.8,23.3,47.9,21.6,45.7L21.6,45.7z M30,47.1c-0.4-1.5-0.6-3.3-0.9-5.3
	c-0.2-1.3-0.4-2.9-0.8-4.2c2.4,0,3.2,2.4,3.4,3.3C32.3,43.3,31.7,45.7,30,47.1L30,47.1z M30,47.1"/>
<path fill="#1D1D1B" d="M50.6,0H3C0.6,0,0,0.5,0,3v69c0,2.5,0.6,3,3,3h47.6c2.4,0,3-0.5,3-3V3C53.6,0.5,53,0,50.6,0L50.6,0z
	 M25.7,72.9c-1.7,0-2.1-1.3-2.1-2.1c0-1.2,0.9-2.1,2.1-2.1c1.3,0,2.1,0.7,2.1,2.1C27.8,71.9,27,72.9,25.7,72.9
	C25.7,72.9,26.9,72.9,25.7,72.9z M51.4,64.3c0,2.2-2,2-2.1,2.1h-45c-0.2,0-2.1,0.6-2.1-2.1V2.1c0-0.2-0.2,0,0,0h36.4h12.9
	c0,15,0,15,0,15V64.3z"/>
</svg>
