<?xml version="1.0" encoding="utf-8"?>
<!-- Generator: Adobe Illustrator 18.0.0, SVG Export Plug-In . SVG Version: 6.00 Build 0)  -->
<!DOCTYPE svg PUBLIC "-//W3C//DTD SVG 1.0//EN" "http://www.w3.org/TR/2001/REC-SVG-20010904/DTD/svg10.dtd">
<svg version="1.0" id="Ebene_1" xmlns="http://www.w3.org/2000/svg" xmlns:xlink="http://www.w3.org/1999/xlink" x="0px" y="0px"
	 width="57px" height="74px" viewBox="0 0 57 74" enable-background="new 0 0 57 74" xml:space="preserve">
<g>
	<path fill="#3C4250" d="M35.2,35.1c-1.4-1.7-3.4-2.8-5.8-2.6c-0.2-0.4-1.8-5.9-1.8-5.9s3.6-3.5,4.2-4.4c3-5.2,3.2-9.4,1.4-13.5
		C32.6,7.3,31,6,29.4,6c-1.2,0-2.2,1.1-2.8,2.4c-2,3.7-3.1,10.6-2.1,15.3c0,0,0.1,1.2-0.9,2.5c-2,2.4-4.2,5-5,8.5
		c-1,3.9-0.2,7.6,2,10.4c2.4,3.3,6,4.8,10.4,4.4c0.8,4.1,1.4,6.7,0.2,9.1c-0.4,0.9,0,0.5-0.4,0.6c-0.4,0-1.7-0.4-3.2,0
		c0.3-1.3,3.2-1.4,3.2-3c0-2.2-2.6-3.5-4.6-3.5c-3.4,0.2-3.6,3.9-3.6,3.9c0,1.3,0.4,2.6,1.2,3.5c1,1.1,2.6,2,4.4,2
		c2.2,0,4.4-0.9,5.2-4.4c0.8-2.8-0.6-7.4-0.8-8.9c2.2-1.1,4.2-4.4,4.4-6.5C37.4,39.9,36.6,37.1,35.2,35.1L35.2,35.1z M28.8,11
		c0.2-0.4,0.6-0.6,1-0.6c0.2,0,0.6,0.2,0.8,0.4c0.8,0.4,1,1.3,1,2.6c-0.2,3.3-2.6,6.1-4,7.4C27,17.7,27.2,13.1,28.8,11L28.8,11z
		 M23,45.1c-1.4-1.5-2-3.7-1.8-5.9c0.4-3.5,1.5-4.5,3.3-6.7c0.4-0.4,1.1-1.3,1.3-1.8c0.7,0.4,1.7,0.9,1.9,1.8
		c-2.4,1.1-3.8,5.2-3.6,8c0,1.3,0.4,2.2,1,3.1c0.2,0.2,0.4,0.4,0.6,0.4c0.2,0,0.6-0.2,0.6-0.4c0.2-0.2,0.2-0.6,0-0.9
		C26,42.5,26,42.3,26,41.9c-0.2-2,1-3.5,2.4-4.1c0.2,1.3,1.6,8.1,1.8,9.6C27.6,48.2,24.8,47.3,23,45.1L23,45.1z M32,46.4
		c-0.4-1.5-0.6-3.3-1-5.2c-0.2-1.3-0.4-2.8-0.8-4.1c2.6,0,3.4,2.4,3.6,3.3C34.4,42.7,33.8,45.1,32,46.4L32,46.4z M32,46.4"/>
	<path fill="#3C4250" d="M53.8,0H3.2C0.6,0,0,0.5,0,3V71c0,2.5,0.6,3,3.2,3h50.7c2.6,0,3.2-0.5,3.2-3V3C57,0.5,56.4,0,53.8,0L53.8,0
		z M27.4,71.9c-1.8,0-2.3-1.3-2.3-2.1c0-1.1,0.9-2.1,2.3-2.1c1.3,0,2.3,0.7,2.3,2.1C29.5,71,28.7,71.9,27.4,71.9
		C27.4,71.9,28.6,71.9,27.4,71.9z M54.7,63.4c0,2.2-2.2,2-2.3,2.1H4.6c-0.2,0-2.3,0.6-2.3-2.1V2.1c0-0.2-0.2,0,0,0H41h13.7
		c0,14.8,0,14.8,0,14.8V63.4z"/>
</g>
</svg>
