<?xml version="1.0" encoding="utf-8"?>
<!-- Generator: Adobe Illustrator 18.0.0, SVG Export Plug-In . SVG Version: 6.00 Build 0)  -->
<!DOCTYPE svg PUBLIC "-//W3C//DTD SVG 1.0//EN" "http://www.w3.org/TR/2001/REC-SVG-20010904/DTD/svg10.dtd">
<svg version="1.0" id="Ebene_1" xmlns="http://www.w3.org/2000/svg" xmlns:xlink="http://www.w3.org/1999/xlink" x="0px" y="0px"
	 viewBox="0 0 75 55.7" enable-background="new 0 0 75 55.7" xml:space="preserve">
<path fill="#1D1D1B" d="M25.6,29.5c-1.1-1.5-2.7-2.4-4.6-2.2c-0.2-0.4-1.4-4.9-1.4-4.9s2.8-0.8,3.3-1.5c2.4-4.4,2.5-7.9,1.1-11.3
	c-0.5-1.3-1.7-2.4-3-2.4c-0.9,0-1.7,0.9-2.2,2c-1.6,3.1-2.5,6.7-1.7,10.7c0,0,0.1,1-0.7,2.1c-1.6,2-3.3,4.2-3.9,7.1
	c-0.8,3.3-0.2,6.4,1.6,8.8c1.9,2.7,4.7,4,8.2,3.7c0.6,3.5,1.1,3.5,0.2,5.5c-0.3,0.7,0,0.4-0.3,0.5c-0.3,0-1.4-0.3-2.5,0
	c0.3-1.1,2.5-1.2,2.5-2.5c0-1.8-2.1-2.9-3.6-2.9c-2.7,0.2-2.8,3.3-2.8,3.3c0,1.1,0.3,2.2,0.9,2.9c0.8,0.9,2,1.6,3.5,1.6
	c1.7,0,3.5-0.7,4.1-3.7c0.6-2.4-0.5-4.1-0.6-5.3c1.7-0.9,3.3-3.7,3.5-5.5C27.3,33.5,26.7,31.2,25.6,29.5L25.6,29.5z M20.6,11.4
	c0.2-0.4,0.5-0.5,0.8-0.5c0.2,0,0.5,0.2,0.6,0.4c0.6,0.4,0.8,1.1,0.8,2.2c-0.2,2.7-2,5.1-3.1,6.2C19.2,17,19.3,13.2,20.6,11.4
	L20.6,11.4z M16,37.9c-1.1-1.3-1.6-3.1-1.4-4.9c0.3-2.9,1.2-3.8,2.6-5.6c0.3-0.4,0.9-1.1,1.1-1.5c0.8,0.1,1.3,0.8,1.4,1.5
	c-1.9,0.9-3,4.3-2.9,6.7c0,1.1,0.3,1.8,0.8,2.6c0.2,0.2,0.3,0.4,0.5,0.4c0.2,0,0.5-0.2,0.5-0.4c0.2-0.2,0.2-0.5,0-0.7
	c-0.2-0.2-0.2-0.4-0.2-0.7c-0.2-1.6,0.8-2.9,1.9-3.5c0.2,1.1,1.3,6.8,1.4,8C19.6,40.5,17.4,39.7,16,37.9L16,37.9z M23.1,39
	c-0.3-1.3-0.5-2.7-0.8-4.4c-0.2-1.1-0.3-2.4-0.6-3.5c2.1,0,2.7,2,2.8,2.7C25,35.9,24.5,37.9,23.1,39L23.1,39z M23.1,39"/>
<path fill="#1D1D1B" d="M75,0H0v55.7h75V0z M4.3,4.3h32.1v47.1H4.3V4.3z M70.7,4.3v47.1H38.6V4.3H70.7z"/>
</svg>
