<?xml version="1.0" encoding="utf-8"?>
<!-- Generator: Adobe Illustrator 18.1.0, SVG Export Plug-In . SVG Version: 6.00 Build 0)  -->
<!DOCTYPE svg PUBLIC "-//W3C//DTD SVG 1.0//EN" "http://www.w3.org/TR/2001/REC-SVG-20010904/DTD/svg10.dtd" [
	<!ENTITY ns_extend "http://ns.adobe.com/Extensibility/1.0/">
	<!ENTITY ns_ai "http://ns.adobe.com/AdobeIllustrator/10.0/">
	<!ENTITY ns_graphs "http://ns.adobe.com/Graphs/1.0/">
	<!ENTITY ns_vars "http://ns.adobe.com/Variables/1.0/">
	<!ENTITY ns_imrep "http://ns.adobe.com/ImageReplacement/1.0/">
	<!ENTITY ns_sfw "http://ns.adobe.com/SaveForWeb/1.0/">
	<!ENTITY ns_custom "http://ns.adobe.com/GenericCustomNamespace/1.0/">
	<!ENTITY ns_adobe_xpath "http://ns.adobe.com/XPath/1.0/">
]>
<svg version="1.0" id="Ebene_1" xmlns:x="&ns_extend;" xmlns:i="&ns_ai;" xmlns:graph="&ns_graphs;"
	 xmlns="http://www.w3.org/2000/svg" xmlns:xlink="http://www.w3.org/1999/xlink" x="0px" y="0px" width="75px" height="55.7px"
	 viewBox="-462 473.3 75 55.7" enable-background="new -462 473.3 75 55.7" xml:space="preserve">
<metadata>
	<sfw  xmlns="&ns_sfw;">
		<slices></slices>
		<sliceSourceBounds  width="75" height="55.7" y="0" x="0" bottomLeftOrigin="true"></sliceSourceBounds>
	</sfw>
</metadata>
<path fill="#3C4250" d="M-436.4,502.8c-1.1-1.5-2.7-2.4-4.6-2.2c-0.2-0.4-1.4-4.9-1.4-4.9s2.8-0.8,3.3-1.5c2.4-4.4,2.5-7.9,1.1-11.3
	c-0.5-1.3-1.7-2.4-3-2.4c-0.9,0-1.7,0.9-2.2,2c-1.6,3.1-2.5,6.7-1.7,10.7c0,0,0.1,1-0.7,2.1c-1.6,2-3.3,4.2-3.9,7.1
	c-0.8,3.3-0.2,6.4,1.6,8.8c1.9,2.7,4.7,4,8.2,3.7c0.6,3.5,1.1,3.5,0.2,5.5c-0.3,0.7,0,0.4-0.3,0.5c-0.3,0-1.4-0.3-2.5,0
	c0.3-1.1,2.5-1.2,2.5-2.5c0-1.8-2.1-2.9-3.6-2.9c-2.7,0.2-2.8,3.3-2.8,3.3c0,1.1,0.3,2.2,0.9,2.9c0.8,0.9,2,1.6,3.5,1.6
	c1.7,0,3.5-0.7,4.1-3.7c0.6-2.4-0.5-4.1-0.6-5.3c1.7-0.9,3.3-3.7,3.5-5.5C-434.7,506.8-435.3,504.5-436.4,502.8L-436.4,502.8z
	 M-441.4,484.7c0.2-0.4,0.5-0.5,0.8-0.5c0.2,0,0.5,0.2,0.6,0.4c0.6,0.4,0.8,1.1,0.8,2.2c-0.2,2.7-2,5.1-3.1,6.2
	C-442.8,490.3-442.7,486.5-441.4,484.7L-441.4,484.7z M-446,511.2c-1.1-1.3-1.6-3.1-1.4-4.9c0.3-2.9,1.2-3.8,2.6-5.6
	c0.3-0.4,0.9-1.1,1.1-1.5c0.8,0.1,1.3,0.8,1.4,1.5c-1.9,0.9-3,4.3-2.9,6.7c0,1.1,0.3,1.8,0.8,2.6c0.2,0.2,0.3,0.4,0.5,0.4
	c0.2,0,0.5-0.2,0.5-0.4c0.2-0.2,0.2-0.5,0-0.7c-0.2-0.2-0.2-0.4-0.2-0.7c-0.2-1.6,0.8-2.9,1.9-3.5c0.2,1.1,1.3,6.8,1.4,8
	C-442.4,513.8-444.6,513-446,511.2L-446,511.2z M-438.9,512.3c-0.3-1.3-0.5-2.7-0.8-4.4c-0.2-1.1-0.3-2.4-0.6-3.5
	c2.1,0,2.7,2,2.8,2.7C-437,509.2-437.5,511.2-438.9,512.3L-438.9,512.3z"/>
<path fill="#3C4250" d="M-387,473.3h-75V529h75V473.3z M-457.7,477.6h32.1v47.1h-32.1V477.6z M-391.3,477.6v47.1h-32.1v-47.1H-391.3
	z"/>
</svg>
