<?xml version="1.0" encoding="utf-8"?>
<!-- Generator: Adobe Illustrator 18.0.0, SVG Export Plug-In . SVG Version: 6.00 Build 0)  -->
<!DOCTYPE svg PUBLIC "-//W3C//DTD SVG 1.0//EN" "http://www.w3.org/TR/2001/REC-SVG-20010904/DTD/svg10.dtd">
<svg version="1.0" id="Ebene_1" xmlns="http://www.w3.org/2000/svg" xmlns:xlink="http://www.w3.org/1999/xlink" x="0px" y="0px"
	 width="75px" height="75px" viewBox="0 0 75 75" enable-background="new 0 0 75 75" xml:space="preserve">
<g>
	<path fill-rule="evenodd" clip-rule="evenodd" fill="#3C4250" d="M37.3,56.1c10.3,0,18.3-8.3,18.3-19c0-10.7-8-19-18.3-19
		C27,18.1,19,26.4,19,37.1C19,47.8,27,56.1,37.3,56.1z M37.3,22.8c8,0,13.7,5.9,13.7,14.3c0,8.3-5.7,14.3-13.7,14.3
		c-8,0-13.7-5.9-13.7-14.3C23.6,28.8,29.3,22.8,37.3,22.8z"/>
	<polygon fill-rule="evenodd" clip-rule="evenodd" fill="#3C4250" points="33,27.6 33,46.6 44.4,37.1 	"/>
	<path fill-rule="evenodd" clip-rule="evenodd" fill="#3C4250" d="M0,0v75h75V0H0z M65,7h5v4h-5V7z M57,7h5v4h-5V7z M48,7h5v4h-5V7z
		 M39,7h5v4h-5V7z M30,7h5v4h-5V7z M21,7h5v4h-5V7z M13,7h5v4h-5V7z M4,7h5v4H4V7z M70,60H4V15h66V60z"/>
</g>
</svg>
