<?xml version="1.0" encoding="utf-8"?>
<!-- Generator: Adobe Illustrator 18.0.0, SVG Export Plug-In . SVG Version: 6.00 Build 0)  -->
<!DOCTYPE svg PUBLIC "-//W3C//DTD SVG 1.0//EN" "http://www.w3.org/TR/2001/REC-SVG-20010904/DTD/svg10.dtd">
<svg version="1.0" id="Ebene_1" xmlns="http://www.w3.org/2000/svg" xmlns:xlink="http://www.w3.org/1999/xlink" x="0px" y="0px"
	 viewBox="0 0 75 75" enable-background="new 0 0 75 75" xml:space="preserve">
<path fill="#3C4250" d="M37.7,18.1c-10.3,0-18.3,8.3-18.3,19c0,10.7,8,19,18.3,19c10.3,0,18.3-8.3,18.3-19
	C56,26.4,48,18.1,37.7,18.1L37.7,18.1z M37.7,51.4c-8,0-13.7-5.9-13.7-14.3c0-8.3,5.7-14.3,13.7-14.3c8,0,13.7,5.9,13.7,14.3
	C51.4,45.4,45.7,51.4,37.7,51.4L37.7,51.4z M37.7,51.4"/>
<path fill="#3C4250" d="M33.2,46.6l11.4-9.5l-11.4-9.5V46.6z M33.2,46.6"/>
<path fill-rule="evenodd" clip-rule="evenodd" fill="#3C4250" d="M0.5,0v75h75V0H0.5z M57.5,7h4v4h-4V7z M48.5,7h4v4h-4V7z M39.5,7
	h5v4h-5V7z M30.5,7h5v4h-5V7z M22.5,7h4v4h-4V7z M13.5,7h4v4h-4V7z M4.5,7h4v4h-4V7z M70.5,60h-66V15h66V60z M70.5,11h-4V7h4V11z"/>
<path fill-rule="evenodd" clip-rule="evenodd" fill="#3C4250" d="M4.4,68.4V64h4.4v4.4H4.4z M13.2,68.4V64h4.4v4.4H13.2z M22,68.4
	V64h4.4v4.4H22z M30.9,68.4V64h4.4v4.4H30.9z M39.7,68.4V64h4.4v4.4H39.7z M48.5,68.4V64h4.4v4.4H48.5z M66.2,68.4V64h4.4v4.4H66.2z
	"/>
<path fill-rule="evenodd" clip-rule="evenodd" fill="#3C4250" d="M57.3,68.4V64h4.4v4.4H57.3z"/>
</svg>
