<?xml version="1.0" encoding="utf-8"?>
<!-- Generator: Adobe Illustrator 18.1.0, SVG Export Plug-In . SVG Version: 6.00 Build 0)  -->
<!DOCTYPE svg PUBLIC "-//W3C//DTD SVG 1.0//EN" "http://www.w3.org/TR/2001/REC-SVG-20010904/DTD/svg10.dtd" [
	<!ENTITY ns_extend "http://ns.adobe.com/Extensibility/1.0/">
	<!ENTITY ns_ai "http://ns.adobe.com/AdobeIllustrator/10.0/">
	<!ENTITY ns_graphs "http://ns.adobe.com/Graphs/1.0/">
	<!ENTITY ns_vars "http://ns.adobe.com/Variables/1.0/">
	<!ENTITY ns_imrep "http://ns.adobe.com/ImageReplacement/1.0/">
	<!ENTITY ns_sfw "http://ns.adobe.com/SaveForWeb/1.0/">
	<!ENTITY ns_custom "http://ns.adobe.com/GenericCustomNamespace/1.0/">
	<!ENTITY ns_adobe_xpath "http://ns.adobe.com/XPath/1.0/">
]>
<svg version="1.0" id="Ebene_1" xmlns:x="&ns_extend;" xmlns:i="&ns_ai;" xmlns:graph="&ns_graphs;"
	 xmlns="http://www.w3.org/2000/svg" xmlns:xlink="http://www.w3.org/1999/xlink" x="0px" y="0px" width="75px" height="75px"
	 viewBox="-462 463 75 75" enable-background="new -462 463 75 75" xml:space="preserve">
<metadata>
	<sfw  xmlns="&ns_sfw;">
		<slices></slices>
		<sliceSourceBounds  width="74" height="75" y="0" x="0.5" bottomLeftOrigin="true"></sliceSourceBounds>
	</sfw>
</metadata>
<path fill="#3C4250" d="M-461.5,463v75h74v-75H-461.5z M-404.5,470h4v4h-4V470z M-413.5,470h4v4h-4V470z M-422.5,470h5v4h-5V470z
	 M-431.5,470h5v4h-5V470z M-439.5,470h4v4h-4V470z M-448.5,470h4v4h-4V470z M-457.5,470h4v4h-4V470z M-391.5,523h-66v-45h66V523z
	 M-391.5,474h-4v-4h4V474z"/>
<path fill="#3C4250" d="M-457.6,531.4V527h4.4v4.4H-457.6z M-448.8,531.4V527h4.4v4.4H-448.8z M-440,531.4V527h4.4v4.4H-440z
	 M-431.2,531.4V527h4.4v4.4H-431.2z M-422.3,531.4V527h4.4v4.4H-422.3z M-413.5,531.4V527h4.4v4.4H-413.5z M-395.8,531.4V527h4.4
	v4.4H-395.8z"/>
<path fill="#3C4250" d="M-404.7,531.4V527h4.4v4.4H-404.7z"/>
<path fill="#3C4250" d="M-426.7,476.3h4.4v48.5h-4.4V476.3z"/>
</svg>
