<?xml version="1.0" encoding="utf-8"?>
<!-- Generator: Adobe Illustrator 18.0.0, SVG Export Plug-In . SVG Version: 6.00 Build 0)  -->
<!DOCTYPE svg PUBLIC "-//W3C//DTD SVG 1.0//EN" "http://www.w3.org/TR/2001/REC-SVG-20010904/DTD/svg10.dtd">
<svg version="1.0" id="Ebene_1" xmlns="http://www.w3.org/2000/svg" xmlns:xlink="http://www.w3.org/1999/xlink" x="0px" y="0px"
	 viewBox="0 0 75 75" enable-background="new 0 0 75 75" xml:space="preserve" width="76px" height="76px">
<path fill-rule="evenodd" clip-rule="evenodd" fill="#3C4250" d="M0.5,0v75h74V0H0.5z M57.5,7h4v4h-4V7z M48.5,7h4v4h-4V7z M39.5,7
	h5v4h-5V7z M30.5,7h5v4h-5V7z M22.5,7h4v4h-4V7z M13.5,7h4v4h-4V7z M4.5,7h4v4h-4V7z M70.5,60h-66V15h66V60z M70.5,11h-4V7h4V11z"/>
<path fill-rule="evenodd" clip-rule="evenodd" fill="#3C4250" d="M4.4,68.4V64h4.4v4.4H4.4z M13.2,68.4V64h4.4v4.4H13.2z M22,68.4
	V64h4.4v4.4H22z M30.8,68.4V64h4.4v4.4H30.8z M39.7,68.4V64h4.4v4.4H39.7z M48.5,68.4V64h4.4v4.4H48.5z M66.2,68.4V64h4.4v4.4H66.2z
	"/>
<path fill-rule="evenodd" clip-rule="evenodd" fill="#3C4250" d="M57.3,68.4V64h4.4v4.4H57.3z"/>
<path fill-rule="evenodd" clip-rule="evenodd" fill="#3C4250" d="M35.3,13.3h4.4v48.5h-4.4V13.3z"/>
</svg>
