<?xml version="1.0" encoding="utf-8"?>
<!-- Generator: Adobe Illustrator 18.0.0, SVG Export Plug-In . SVG Version: 6.00 Build 0)  -->
<!DOCTYPE svg PUBLIC "-//W3C//DTD SVG 1.0//EN" "http://www.w3.org/TR/2001/REC-SVG-20010904/DTD/svg10.dtd">
<svg version="1.0" id="Ebene_1" xmlns="http://www.w3.org/2000/svg" xmlns:xlink="http://www.w3.org/1999/xlink" x="0px" y="0px"
	 width="75px" height="75px" viewBox="0 0 75 75" enable-background="new 0 0 75 75" xml:space="preserve">
<path fill-rule="evenodd" clip-rule="evenodd" fill="#3C4250" d="M0,0v75h75V0H0z M66,7h5v4h-5V7z M58,7h5v4h-5V7z M49,7h5v4h-5V7z
	 M40,7h5v4h-5V7z M21,7h5v4h-5V7z M12,7h5v4h-5V7z M4,7h5v4H4V7z M35,60H4V15h31V60z M35,11h-5V7h5V11z M71,60H40V15h31V60z"/>
</svg>
