<?xml version="1.0" encoding="utf-8"?>
<!-- Generator: Adobe Illustrator 18.1.0, SVG Export Plug-In . SVG Version: 6.00 Build 0)  -->
<!DOCTYPE svg PUBLIC "-//W3C//DTD SVG 1.0//EN" "http://www.w3.org/TR/2001/REC-SVG-20010904/DTD/svg10.dtd" [
	<!ENTITY ns_extend "http://ns.adobe.com/Extensibility/1.0/">
	<!ENTITY ns_ai "http://ns.adobe.com/AdobeIllustrator/10.0/">
	<!ENTITY ns_graphs "http://ns.adobe.com/Graphs/1.0/">
	<!ENTITY ns_vars "http://ns.adobe.com/Variables/1.0/">
	<!ENTITY ns_imrep "http://ns.adobe.com/ImageReplacement/1.0/">
	<!ENTITY ns_sfw "http://ns.adobe.com/SaveForWeb/1.0/">
	<!ENTITY ns_custom "http://ns.adobe.com/GenericCustomNamespace/1.0/">
	<!ENTITY ns_adobe_xpath "http://ns.adobe.com/XPath/1.0/">
]>
<svg version="1.0" id="Ebene_1" xmlns:x="&ns_extend;" xmlns:i="&ns_ai;" xmlns:graph="&ns_graphs;"
	 xmlns="http://www.w3.org/2000/svg" xmlns:xlink="http://www.w3.org/1999/xlink" x="0px" y="0px" width="75px" height="60px"
	 viewBox="-462 471 75 60" enable-background="new -462 471 75 60" xml:space="preserve">
<metadata>
	<sfw  xmlns="&ns_sfw;">
		<slices></slices>
		<sliceSourceBounds  width="75" height="60.1" y="-0.1" x="0" bottomLeftOrigin="true"></sliceSourceBounds>
	</sfw>
</metadata>
<g>
	<path fill="#3C4250" d="M-390.1,479.1v-5.6l0,0c-0.3-0.1-6.3-2.5-13.8-2.5c-7.9,0-14.5,2.4-20,7.5c-5.5-5.1-12.7-7.5-20.6-7.5
		c-7.4,0-13,2.3-13.2,2.4l-0.5,0.1v5c-2.3-0.1-3.8,0.6-3.8,1.9c0,6.8,0,48.8,0,48.8h33.1c1.1,1.1,2.9,1.9,4.8,1.9s3.4-0.8,4.6-1.9
		h32.5c0,0,0-46.4,0-48.8C-387,479.3-388.3,478.6-390.1,479.1z M-424.5,525.4c-2.8-1.2-12.4-5-21.9-5c-3.8,0-7.2,0.7-10,1.9v-46.9
		c1.7-0.6,6.4-2.1,11.9-2.1c7.3,0,13.6,2.5,18.7,7.1v28.1l1.2-1.9v18.8H-424.5z M-392,522.2c-3-1.3-6.8-1.9-10.6-1.9
		c-9.5,0-18.5,3.7-21.2,5v-18.7l1.2,1.9v-28.1c5.1-4.6,11.5-7.1,18.8-7.1c5.5,0,10.2,1.5,11.9,2.1v46.8H-392z"/>
	<path fill="#3C4250" d="M-438.7,482.9c5.1,1,8.6,3.1,8.6,3.1l0.8-1.6c-0.3-0.2-4-2.3-9.5-3.4L-438.7,482.9L-438.7,482.9z"/>
	<path fill="#3C4250" d="M-438.7,488.2c5.1,1,8.6,3.1,8.6,3.1l0.8-1.6c-0.3-0.2-4-2.3-9.5-3.4L-438.7,488.2L-438.7,488.2z"/>
	<path fill="#3C4250" d="M-438.7,493.2c5.1,1,8.6,3.1,8.6,3.1l0.8-1.6c-0.3-0.2-4-2.3-9.5-3.4L-438.7,493.2L-438.7,493.2z"/>
	<path fill="#3C4250" d="M-438.7,498.6c5.1,1,8.6,3.1,8.6,3.1l0.8-1.6c-0.3-0.2-4-2.3-9.5-3.4L-438.7,498.6L-438.7,498.6z"/>
	<path fill="#3C4250" d="M-452,502.2l0.4,1.8c11.2-3.2,21.3,2.7,21.4,2.8l0.8-1.6C-429.7,504.9-440,498.8-452,502.2z"/>
	<path fill="#3C4250" d="M-452,507.3l0.4,1.8c11.2-3.2,21.3,2.7,21.4,2.8l0.8-1.6C-429.7,510-440,504-452,507.3z"/>
	<path fill="#3C4250" d="M-452,512.5l0.4,1.8c11.2-3.2,21.3,2.7,21.4,2.8l0.8-1.6C-429.7,515.2-440,509.2-452,512.5z"/>
	<path fill="#3C4250" d="M-417.7,486.2c0.1-0.1,10.2-5.9,21.4-2.8l0.4-1.8c-11.9-3.4-22.3,2.7-22.7,2.9L-417.7,486.2z"/>
	<path fill="#3C4250" d="M-418.6,489.8l0.8,1.6c0.1-0.1,10.2-6,21.4-2.8l0.4-1.8C-407.8,483.5-418.1,489.6-418.6,489.8z"/>
	<path fill="#3C4250" d="M-418.6,494.8l0.8,1.6c0.1-0.1,10.2-5.9,21.4-2.8l0.4-1.8C-407.8,488.5-418.1,494.5-418.6,494.8z"/>
	<path fill="#3C4250" d="M-418.6,500.2l0.8,1.6c0.1-0.1,10.2-6,21.4-2.8l0.4-1.8C-407.8,493.9-418.1,500-418.6,500.2z"/>
	<path fill="#3C4250" d="M-418.6,505.3l0.8,1.6c0.1-0.1,10.2-5.9,21.4-2.8l0.4-1.8C-407.8,498.9-418.1,505-418.6,505.3z"/>
	<path fill="#3C4250" d="M-418.6,510.4l0.8,1.6c0.1-0.1,10.2-5.9,21.4-2.8l0.4-1.8C-407.8,504.1-418.1,510.2-418.6,510.4z"/>
	<path fill="#3C4250" d="M-418.6,515.6l0.8,1.6c0.1-0.1,10.2-6,21.4-2.8l0.4-1.8C-407.8,509.3-418.1,515.4-418.6,515.6z"/>
	<path fill="#3C4250" d="M-440.6,498.3v-17.6c0,0-2.8-0.3-5.7-0.3c-2.9,0.1-5.7,1-5.7,1V499c0,0,2.3-0.7,5.4-1
		C-443.6,497.8-440.6,498.3-440.6,498.3z"/>
</g>
</svg>
