<?xml version="1.0" encoding="utf-8"?>
<!-- Generator: Adobe Illustrator 18.1.0, SVG Export Plug-In . SVG Version: 6.00 Build 0)  -->
<!DOCTYPE svg PUBLIC "-//W3C//DTD SVG 1.0//EN" "http://www.w3.org/TR/2001/REC-SVG-20010904/DTD/svg10.dtd">
<svg version="1.0" id="Ebene_1" xmlns="http://www.w3.org/2000/svg" xmlns:xlink="http://www.w3.org/1999/xlink" x="0px" y="0px"
	 width="75px" height="60px" viewBox="0 0 75 60" enable-background="new 0 0 75 60" xml:space="preserve">
<g>
	<path fill="#3c4250" d="M71.9,8.1V2.5l0,0C71.6,2.4,65.6,0,58.1,0c-7.9,0-14.5,2.4-20,7.5C32.6,2.4,25.4,0,17.5,0
		c-7.4,0-13,2.3-13.2,2.4L3.8,2.5v5C1.5,7.4,0,8.1,0,9.4c0,6.8,0,48.8,0,48.8h33.1c1.1,1.1,2.9,1.9,4.8,1.9s3.4-0.8,4.6-1.9H75
		c0,0,0-46.4,0-48.8C75,8.3,73.7,7.6,71.9,8.1z M37.5,54.4c-2.8-1.2-12.4-5-21.9-5c-3.8,0-7.2,0.7-10,1.9V4.4
		C7.3,3.8,12,2.3,17.5,2.3c7.3,0,13.6,2.5,18.7,7.1v28.1l1.2-1.9V54.4z M70,51.2c-3-1.3-6.8-1.9-10.6-1.9c-9.5,0-18.5,3.7-21.2,5
		V35.6l1.2,1.9V9.4c5.1-4.6,11.5-7.1,18.8-7.1c5.5,0,10.2,1.5,11.9,2.1V51.2z"/>
	<path fill="#424242" d="M23.3,11.9c5.1,1,8.6,3.1,8.6,3.1l0.8-1.6c-0.3-0.2-4-2.3-9.5-3.4L23.3,11.9L23.3,11.9z"/>
	<path fill="#424242" d="M23.3,17.2c5.1,1,8.6,3.1,8.6,3.1l0.8-1.6c-0.3-0.2-4-2.3-9.5-3.4L23.3,17.2L23.3,17.2z"/>
	<path fill="#424242" d="M23.3,22.2c5.1,1,8.6,3.1,8.6,3.1l0.8-1.6c-0.3-0.2-4-2.3-9.5-3.4L23.3,22.2L23.3,22.2z"/>
	<path fill="#424242" d="M23.3,27.6c5.1,1,8.6,3.1,8.6,3.1l0.8-1.6c-0.3-0.2-4-2.3-9.5-3.4L23.3,27.6L23.3,27.6z"/>
	<path fill="#424242" d="M10,31.2l0.4,1.8c11.2-3.2,21.3,2.7,21.4,2.8l0.8-1.6C32.3,33.9,22,27.8,10,31.2z"/>
	<path fill="#424242" d="M10,36.3l0.4,1.8c11.2-3.2,21.3,2.7,21.4,2.8l0.8-1.6C32.3,39,22,33,10,36.3z"/>
	<path fill="#424242" d="M10,41.5l0.4,1.8c11.2-3.2,21.3,2.7,21.4,2.8l0.8-1.6C32.3,44.2,22,38.2,10,41.5z"/>
	<path fill="#424242" d="M44.3,15.2c0.1-0.1,10.2-5.9,21.4-2.8l0.4-1.8c-11.9-3.4-22.3,2.7-22.7,2.9L44.3,15.2z"/>
	<path fill="#424242" d="M43.4,18.8l0.8,1.6c0.1-0.1,10.2-6,21.4-2.8l0.4-1.8C54.2,12.5,43.9,18.6,43.4,18.8z"/>
	<path fill="#424242" d="M43.4,23.8l0.8,1.6c0.1-0.1,10.2-5.9,21.4-2.8l0.4-1.8C54.2,17.5,43.9,23.5,43.4,23.8z"/>
	<path fill="#424242" d="M43.4,29.2l0.8,1.6c0.1-0.1,10.2-6,21.4-2.8l0.4-1.8C54.2,22.9,43.9,29,43.4,29.2z"/>
	<path fill="#424242" d="M43.4,34.3l0.8,1.6c0.1-0.1,10.2-5.9,21.4-2.8l0.4-1.8C54.2,27.9,43.9,34,43.4,34.3z"/>
	<path fill="#424242" d="M43.4,39.4l0.8,1.6c0.1-0.1,10.2-5.9,21.4-2.8l0.4-1.8C54.2,33.1,43.9,39.2,43.4,39.4z"/>
	<path fill="#424242" d="M43.4,44.6l0.8,1.6c0.1-0.1,10.2-6,21.4-2.8l0.4-1.8C54.2,38.3,43.9,44.4,43.4,44.6z"/>
	<path fill="#424242" d="M21.4,27.3V9.7c0,0-2.8-0.3-5.7-0.3c-2.9,0.1-5.7,1-5.7,1V28c0,0,2.3-0.7,5.4-1
		C18.4,26.8,21.4,27.3,21.4,27.3z"/>
</g>
</svg>
