<?xml version="1.0" encoding="utf-8"?>
<!-- Generator: Adobe Illustrator 18.1.0, SVG Export Plug-In . SVG Version: 6.00 Build 0)  -->
<!DOCTYPE svg PUBLIC "-//W3C//DTD SVG 1.0//EN" "http://www.w3.org/TR/2001/REC-SVG-20010904/DTD/svg10.dtd" [
	<!ENTITY ns_extend "http://ns.adobe.com/Extensibility/1.0/">
	<!ENTITY ns_ai "http://ns.adobe.com/AdobeIllustrator/10.0/">
	<!ENTITY ns_graphs "http://ns.adobe.com/Graphs/1.0/">
	<!ENTITY ns_vars "http://ns.adobe.com/Variables/1.0/">
	<!ENTITY ns_imrep "http://ns.adobe.com/ImageReplacement/1.0/">
	<!ENTITY ns_sfw "http://ns.adobe.com/SaveForWeb/1.0/">
	<!ENTITY ns_custom "http://ns.adobe.com/GenericCustomNamespace/1.0/">
	<!ENTITY ns_adobe_xpath "http://ns.adobe.com/XPath/1.0/">
]>
<svg version="1.0" id="Ebene_1" xmlns:x="&ns_extend;" xmlns:i="&ns_ai;" xmlns:graph="&ns_graphs;"
	 xmlns="http://www.w3.org/2000/svg" xmlns:xlink="http://www.w3.org/1999/xlink" x="0px" y="0px" width="53.6px" height="75px"
	 viewBox="-472 463 53.6 75" enable-background="new -472 463 53.6 75" xml:space="preserve">
<metadata>
	<sfw  xmlns="&ns_sfw;">
		<slices></slices>
		<sliceSourceBounds  width="53.6" height="75" y="0" x="0" bottomLeftOrigin="true"></sliceSourceBounds>
	</sfw>
</metadata>
<path fill="#3C4250" d="M-421.4,463H-469c-2.4,0-3,0.5-3,3v69c0,2.5,0.6,3,3,3h47.6c2.4,0,3-0.5,3-3v-69
	C-418.4,463.5-419,463-421.4,463L-421.4,463z M-446.3,535.9c-1.7,0-2.1-1.3-2.1-2.1c0-1.2,0.9-2.1,2.1-2.1c1.3,0,2.1,0.7,2.1,2.1
	C-444.2,534.9-445,535.9-446.3,535.9C-446.3,535.9-445.1,535.9-446.3,535.9z M-420.6,527.3c0,2.2-2,2-2.1,2.1h-45
	c-0.2,0-2.1,0.6-2.1-2.1v-62.2c0-0.2-0.2,0,0,0h36.4h12.9c0,15,0,15,0,15v47.2H-420.6z"/>
<path fill="#3C4250" d="M-431.9,506.3l4,1.9l-2.3,4.6l-2.3,0.3l-0.3,1.8l-4.7,3.9l-2.2,4l1.6,1.7l-2.6-0.7l-1.7-2.5l4.5-8.9l-3.3-3
	l-1-4l1.2-2l-1,0.1l-1.6-2l-1.4-0.7l-3.2-1.1l-2.6-4l-1.6-2.9v-3.9l-2.6-4.3l-3.3-2l-2,1.1l-3.7,1.8l2.4-1.9l-1.5-0.3l-0.6-1.9
	l1.7-1.4l-1.7-0.2l0.3-1.2h1.2l-1.1-1.7l3.1-1.8l5.6,3l2.1-1.9l4.4,2.6l8.5-0.9v4.2l-3.4,0.7l-0.7,1.8l3.3,3.5l0.8-0.1l0.6-4.3
	l2.2-0.1l0.9,2.4l1.1-0.7l2.5,5.5l-3.5,1.6l-2.7,1.4l-2.2,2.9v1.3l-0.8,0.1l-0.6-1.6l-3.1,0.5l-0.7,1.9l0.8,1.1l1.1-0.9l1.1,0.1
	l-0.6,1.6l1.4,0.1l0.4,1.7l0.9,0.3l0.7-1.1l4.5,0.4l3.1,2.2L-431.9,506.3z M-429.8,477.3l-1.7-0.5l-2,2.2l2.7,6.8l1.3,0.3l0.1-2.2
	l0.9-0.5v-0.8l0.9-1.6l-0.6-1.2L-429.8,477.3z"/>
</svg>
