<?xml version="1.0" encoding="utf-8"?>
<!-- Generator: Adobe Illustrator 18.0.0, SVG Export Plug-In . SVG Version: 6.00 Build 0)  -->
<!DOCTYPE svg PUBLIC "-//W3C//DTD SVG 1.0//EN" "http://www.w3.org/TR/2001/REC-SVG-20010904/DTD/svg10.dtd">
<svg version="1.0" id="Ebene_1" xmlns="http://www.w3.org/2000/svg" xmlns:xlink="http://www.w3.org/1999/xlink" x="0px" y="0px"
	 width="54px" height="75px" viewBox="0 0 54 75" enable-background="new 0 0 54 75" xml:space="preserve">
<g>
	<path fill="#3C4250" d="M50.6,0H3C0.6,0,0,0.5,0,3v69c0,2.5,0.6,3,3,3h47.6c2.4,0,3.4-0.5,3.4-3V3C54,0.5,53,0,50.6,0z M25.7,72.9
		c-1.7,0-2.1-1.3-2.1-2.1c0-1.2,0.9-2.1,2.1-2.1c1.3,0,2.1,0.7,2.1,2.1C27.8,71.9,27,72.9,25.7,72.9z M52,17.1L52,17.1v47.1
		c0,2.2-2.6,2.7-2.7,2.7h-45C4.1,67,2,67,2,64.3V3h36.6H52C52,15.7,52,17,52,17.1z"/>
	<polygon fill="#3C4250" points="41.1,22.8 42.4,23.1 42.5,20.9 43.4,20.4 43.4,19.5 44.3,17.9 43.7,16.7 42.2,14.3 40.6,13.8 
		38.5,16 	"/>
	<polygon fill="#3C4250" points="39.6,41.5 36.5,39.3 32,38.8 31.3,39.9 30.4,39.6 30,37.9 28.6,37.8 29.2,36.3 28,36.2 26.9,37 
		26.1,35.9 26.8,34 29.8,33.6 30.3,35.2 31,35 31,33.6 33.3,30.7 36,29.2 39.6,27.7 37.1,22.2 36,22.9 35.1,20.5 32.9,20.6 
		32.3,24.9 31.6,25 28.3,21.6 29.3,19.8 33,19.1 33,14.9 24.2,15.8 19.6,13.2 17.4,15.1 11.8,12.1 8.8,14.1 9.9,16 8.6,16 8.3,17 
		10,17.1 8.3,18.4 8.8,20.3 10.3,20.6 7.9,22.5 11.7,20.7 13.7,19.6 17.2,21.6 20,25.9 20,29.8 21.4,32.7 23.9,36.7 27.1,37.8 
		28.4,38.5 30,40.5 31.1,40.3 29.8,42.3 30.9,46.3 34.2,49.3 29.7,58.2 31.3,60.8 33.9,61.4 32.3,59.8 34.5,55.8 39.1,51.9 
		39.5,50.1 41.8,49.7 44,45.2 40.1,43.3 	"/>
</g>
</svg>
