<?xml version="1.0" encoding="utf-8"?>
<!-- Generator: Adobe Illustrator 18.0.0, SVG Export Plug-In . SVG Version: 6.00 Build 0)  -->
<!DOCTYPE svg PUBLIC "-//W3C//DTD SVG 1.0//EN" "http://www.w3.org/TR/2001/REC-SVG-20010904/DTD/svg10.dtd">
<svg version="1.0" id="Ebene_1" xmlns="http://www.w3.org/2000/svg" xmlns:xlink="http://www.w3.org/1999/xlink" x="0px" y="0px"
	 viewBox="0 0 53.6 75" enable-background="new 0 0 53.6 75" xml:space="preserve">
<path fill="#1D1D1B" d="M50.6,0H3C0.6,0,0,0.5,0,3v69c0,2.5,0.6,3,3,3h47.6c2.4,0,3-0.5,3-3V3C53.6,0.5,53,0,50.6,0L50.6,0z
	 M25.7,72.9c-1.7,0-2.1-1.3-2.1-2.1c0-1.2,0.9-2.1,2.1-2.1c1.3,0,2.1,0.7,2.1,2.1C27.8,71.9,27,72.9,25.7,72.9
	C25.7,72.9,26.9,72.9,25.7,72.9z M51.4,64.3c0,2.2-2,2-2.1,2.1h-45c-0.2,0-2.1,0.6-2.1-2.1V2.1c0-0.2-0.2,0,0,0h36.4h12.9
	c0,15,0,15,0,15V64.3z"/>
<path fill="#1D1D1B" d="M40.1,43.3l4,1.9l-2.3,4.6l-2.3,0.3l-0.3,1.8l-4.7,3.9l-2.2,4l1.6,1.7l-2.6-0.7l-1.7-2.5l4.5-8.9l-3.3-3
	l-1-4l1.2-2L30,40.5l-1.6-2L27,37.8l-3.2-1.1l-2.6-4l-1.6-2.9v-3.9L17,21.6l-3.3-2l-2,1.1l-3.7,1.8l2.4-1.9l-1.5-0.3l-0.6-1.9L10,17
	l-1.7-0.2l0.3-1.2h1.2l-1.1-1.7l3.1-1.8l5.6,3l2.1-1.9l4.4,2.6l8.5-0.9v4.2l-3.4,0.7l-0.7,1.8l3.3,3.5l0.8-0.1l0.6-4.3l2.2-0.1
	l0.9,2.4l1.1-0.7l2.5,5.5l-3.5,1.6l-2.7,1.4l-2.2,2.9V35l-0.8,0.1l-0.6-1.6L26.8,34l-0.7,1.9l0.8,1.1l1.1-0.9l1.1,0.1l-0.6,1.6
	l1.4,0.1l0.4,1.7l0.9,0.3l0.7-1.1l4.5,0.4l3.1,2.2L40.1,43.3z M42.2,14.3l-1.7-0.5L38.5,16l2.7,6.8l1.3,0.3l0.1-2.2l0.9-0.5l0-0.8
	l0.9-1.6l-0.6-1.2L42.2,14.3z M44.3,14.3"/>
</svg>
