<?xml version="1.0" encoding="utf-8"?>
<!-- Generator: Adobe Illustrator 18.0.0, SVG Export Plug-In . SVG Version: 6.00 Build 0)  -->
<!DOCTYPE svg PUBLIC "-//W3C//DTD SVG 1.0//EN" "http://www.w3.org/TR/2001/REC-SVG-20010904/DTD/svg10.dtd">
<svg version="1.0" id="Ebene_1" xmlns="http://www.w3.org/2000/svg" xmlns:xlink="http://www.w3.org/1999/xlink" x="0px" y="0px"
	 viewBox="0 0 75 55.7" enable-background="new 0 0 75 55.7" xml:space="preserve">
<path fill="#3C4250" d="M27.9,36l2.6,1.3l-1.5,3l-1.5,0.2l-0.2,1.2l-3.1,2.6L22.8,47l1.1,1.1l-1.7-0.4L21,46l3-6l-2.2-2l-0.7-2.7
	l0.8-1.3l-0.7,0.1l-1.1-1.3l-0.9-0.4l-2.1-0.7L15.4,29l-1-1.9v-2.6l-1.7-2.9l-2.2-1.3l-1.3,0.7l-2.5,1.2l1.6-1.3l-1-0.2l-0.4-1.3
	L8,18.5l-1.1-0.2l0.2-0.8h0.8l-0.7-1.1l2-1.2l3.7,2l1.4-1.3l2.9,1.7l5.6-0.6v2.8l-2.3,0.4l-0.4,1.2l2.2,2.3l0.5-0.1l0.4-2.9l1.4-0.1
	l0.6,1.6l0.7-0.4l1.7,3.6l-2.3,1l-1.8,1L22,29.6v1l-0.5,0.1l-0.4-1l-2,0.3l-0.5,1.3l0.5,0.7l0.7-0.6l0.8,0.1l-0.4,1.1l0.9,0.1
	l0.3,1.1l0.6,0.2l0.5-0.7l3,0.3l2,1.5L27.9,36z M65.6,36.2l-0.1,1.1l-1-0.3l0.2-0.6l-1-0.1l-1.4,1.2l-1.4,0.5l0.3,1.9L61,40.4
	l0.5,0.3l2.1-0.5l0.8,0.5l0.4-0.2l0.3,0.8l1.1,0.3l0.8-0.5l0.4-2.3l-1.2-1.2L65.6,36.2z M60.3,35.1l1.1,0.2l0.5-1.6l-0.3-0.3l-1.5,1
	L60.3,35.1z M63.8,34.7l1.2,1.2l0.7,0l0.3-0.3l1,0.6l-0.4-0.8l-1.8-0.9L63.8,34.7z M65.9,24.9h-0.3l0,1.6l-0.8,1.6l-1,0.7l0,0.7
	l1.8-1.1l0.1-1.1l0.6-0.6l-0.5-0.4l0.3-0.9L65.9,24.9z M70.6,40.6l0.1,1.2l-1.3,1.3l0.9,0.1L71,42l0.6-0.8l-0.4,0L70.6,40.6z
	 M41.5,22.4v1.3l0.9-0.4l0.3-0.4l-1-1.8l-0.6,0.4l0,0.5l-0.5,0.6l0,0.7h0.6L41.5,22.4z M49.4,37.2l0,1.4l0.6,0.2l0.6-1.7l-0.1-0.7
	L49.4,37.2z M69,22.6l0,1L68,25l0-1.6l1.5-1.8l-0.9,0.1l-1.2,0.9l-1.4-0.1l-1.1,1l0.8,0.6l-0.9,2.5l-0.8,0.1l-0.5,0.7l0.2,0.9
	L63,28.8l-0.2-0.8l-0.5-0.7L61.7,28l0.5,1.5l-0.7,1.3l-1.6,0.1l-0.3,0.6l0.7,1.1l-0.8,0.6l-0.8-0.8l0,0.8l0.7,0.8l0.3,1.4l0.9,0.3
	l1.2,0.5l-2.2-0.4l-0.9-0.9l-0.8-1.2l1.1,0.6l-0.5-0.9L58.3,32l-0.5,0.1l-0.6-1.3L55.5,32v0.7l-0.6,0.6l-0.8-1.9l-0.9-1l-2.1-0.4
	l-0.6-0.5l-0.3,0.2l0.4,1l0.7-0.3l0.9,0.7l-2.7,1.6l-1.4-2.7l-0.3,0.1l1.4,3.2l1.4-0.6L50.2,34l-1.4,1.2l0.2,1.9l-0.8,0.6l-1.4,2.7
	l-1.4,0.3l-1.3-3l0.3-1.4l-0.8-2.4L41,34l-1.5-1.4l0.3-2.3l1.4-1.7L44,28l0.2,0.7l1.1,0.7l0.4-0.6l1.7,0.4l0.5-0.3l0.2-0.7l-1.2-0.2
	l-0.4-0.7l-0.3-0.1L46,28.3l-0.5-0.7l0-0.6l-0.7-0.6l-0.4-0.2l0,0.6l0.9,0.6l-0.5,0.5l-0.6-0.8l-0.5-0.5l-1.1,0.5L42,28.3l-1.1-0.2
	l-0.1-1.4l1.4,0.1l-0.5-0.7l-0.3-0.6l1.1-0.4l0.6-0.8l0.5,0l-0.1-0.5l0.3-0.4l0.2,0.7l1.4,0l0.4-1l0.5,0.2l-0.2-0.7l0.8-0.3
	l-0.3-0.3L46,22.3l-0.3-0.6l0,0l0,0l-0.1-0.3l0.3-0.2l0.3-0.7l-0.3,0L45.5,21l-0.4,0.8l0.4,0.5l-0.4,1.1l-0.6,0.2l-0.4-1.1L43.4,23
	L43,22.8l0-1.1l0.6-0.5l0.5-1.3l1.3-0.7l3.3,0.6c3.9-0.4,11.1-3.6,11.1-3.6l11.4,4l0.4,1.2l-1.6,0.9L69,22.6z M49.2,27L47.4,26
	l-0.6,1l0.2,0.4l1.1-0.2l0.8,0.2L49.2,27z M51.1,28.1L51,27.1l-0.4-0.5l0.4-0.2v-0.5l-1.1,0.6l0.4,1l-0.2,0.7L51.1,28.1z M29.3,16.7
	l-1.1-0.3l-1.4,1.4l1.8,4.5l0.8,0.2l0.1-1.5l0.6-0.3l0-0.6l0.6-1.1l-0.4-0.8L29.3,16.7z M30.7,16.7"/>
<path fill="#3C4250" d="M75,0H0v55.7h75V0z M4.3,4.3h32.1v47.1H4.3V4.3z M70.7,4.3v47.1H38.6V4.3H70.7z"/>
</svg>
