<?xml version="1.0" encoding="utf-8"?>
<!-- Generator: Adobe Illustrator 18.1.0, SVG Export Plug-In . SVG Version: 6.00 Build 0)  -->
<!DOCTYPE svg PUBLIC "-//W3C//DTD SVG 1.0//EN" "http://www.w3.org/TR/2001/REC-SVG-20010904/DTD/svg10.dtd" [
	<!ENTITY ns_extend "http://ns.adobe.com/Extensibility/1.0/">
	<!ENTITY ns_ai "http://ns.adobe.com/AdobeIllustrator/10.0/">
	<!ENTITY ns_graphs "http://ns.adobe.com/Graphs/1.0/">
	<!ENTITY ns_vars "http://ns.adobe.com/Variables/1.0/">
	<!ENTITY ns_imrep "http://ns.adobe.com/ImageReplacement/1.0/">
	<!ENTITY ns_sfw "http://ns.adobe.com/SaveForWeb/1.0/">
	<!ENTITY ns_custom "http://ns.adobe.com/GenericCustomNamespace/1.0/">
	<!ENTITY ns_adobe_xpath "http://ns.adobe.com/XPath/1.0/">
]>
<svg version="1.0" id="Ebene_1" xmlns:x="&ns_extend;" xmlns:i="&ns_ai;" xmlns:graph="&ns_graphs;"
	 xmlns="http://www.w3.org/2000/svg" xmlns:xlink="http://www.w3.org/1999/xlink" x="0px" y="0px" width="75px" height="55.7px"
	 viewBox="-462 473.3 75 55.7" enable-background="new -462 473.3 75 55.7" xml:space="preserve">
<metadata>
	<sfw  xmlns="&ns_sfw;">
		<slices></slices>
		<sliceSourceBounds  width="75" height="55.7" y="0" x="0" bottomLeftOrigin="true"></sliceSourceBounds>
	</sfw>
</metadata>
<path fill="#3C4250" d="M-434.1,509.3l2.6,1.3l-1.5,3l-1.5,0.2l-0.2,1.2l-3.1,2.6l-1.4,2.7l1.1,1.1l-1.7-0.4l-1.2-1.7l3-6l-2.2-2
	l-0.7-2.7l0.8-1.3l-0.7,0.1l-1.1-1.3l-0.9-0.4l-2.1-0.7l-1.7-2.7l-1-1.9v-2.6l-1.7-2.9l-2.2-1.3l-1.3,0.7l-2.5,1.2l1.6-1.3l-1-0.2
	l-0.4-1.3l1.1-0.9l-1.1-0.2l0.2-0.8h0.8l-0.7-1.1l2-1.2l3.7,2l1.4-1.3l2.9,1.7l5.6-0.6v2.8l-2.3,0.4l-0.4,1.2l2.2,2.3l0.5-0.1
	l0.4-2.9l1.4-0.1l0.6,1.6l0.7-0.4l1.7,3.6l-2.3,1l-1.8,1l-1.5,2.2v1l-0.5,0.1l-0.4-1l-2,0.3l-0.5,1.3l0.5,0.7l0.7-0.6l0.8,0.1
	l-0.4,1.1l0.9,0.1l0.3,1.1l0.6,0.2l0.5-0.7l3,0.3l2,1.5L-434.1,509.3z M-396.4,509.5l-0.1,1.1l-1-0.3l0.2-0.6l-1-0.1l-1.4,1.2
	l-1.4,0.5l0.3,1.9l-0.2,0.5l0.5,0.3l2.1-0.5l0.8,0.5l0.4-0.2l0.3,0.8l1.1,0.3l0.8-0.5l0.4-2.3l-1.2-1.2L-396.4,509.5z M-401.7,508.4
	l1.1,0.2l0.5-1.6l-0.3-0.3l-1.5,1L-401.7,508.4z M-398.2,508l1.2,1.2h0.7l0.3-0.3l1,0.6l-0.4-0.8l-1.8-0.9L-398.2,508z
	 M-396.1,498.2h-0.3v1.6l-0.8,1.6l-1,0.7v0.7l1.8-1.1l0.1-1.1l0.6-0.6l-0.5-0.4l0.3-0.9L-396.1,498.2z M-391.4,513.9l0.1,1.2
	l-1.3,1.3l0.9,0.1l0.7-1.2l0.6-0.8h-0.4L-391.4,513.9z M-420.5,495.7v1.3l0.9-0.4l0.3-0.4l-1-1.8l-0.6,0.4v0.5l-0.5,0.6v0.7h0.6
	L-420.5,495.7z M-412.6,510.5v1.4l0.6,0.2l0.6-1.7l-0.1-0.7L-412.6,510.5z M-393,495.9v1l-1,1.4v-1.6l1.5-1.8l-0.9,0.1l-1.2,0.9
	l-1.4-0.1l-1.1,1l0.8,0.6l-0.9,2.5l-0.8,0.1l-0.5,0.7l0.2,0.9l-0.7,0.5l-0.2-0.8l-0.5-0.7l-0.6,0.7l0.5,1.5l-0.7,1.3l-1.6,0.1
	l-0.3,0.6l0.7,1.1l-0.8,0.6l-0.8-0.8v0.8l0.7,0.8l0.3,1.4l0.9,0.3l1.2,0.5l-2.2-0.4l-0.9-0.9l-0.8-1.2l1.1,0.6l-0.5-0.9l-0.2-1.4
	l-0.5,0.1l-0.6-1.3l-1.7,1.2v0.7l-0.6,0.6l-0.8-1.9l-0.9-1l-2.1-0.4l-0.6-0.5l-0.3,0.2l0.4,1l0.7-0.3l0.9,0.7l-2.7,1.6l-1.4-2.7
	l-0.3,0.1l1.4,3.2l1.4-0.6l-0.4,1.3l-1.4,1.2l0.2,1.9l-0.8,0.6l-1.4,2.7l-1.4,0.3l-1.3-3l0.3-1.4l-0.8-2.4l-2.6,0.1l-1.5-1.4
	l0.3-2.3l1.4-1.7l2.8-0.6l0.2,0.7l1.1,0.7l0.4-0.6l1.7,0.4l0.5-0.3l0.2-0.7l-1.2-0.2l-0.4-0.7l-0.3-0.1l-0.2,1.1l-0.5-0.7v-0.6
	l-0.7-0.6l-0.4-0.2v0.6l0.9,0.6l-0.5,0.5l-0.6-0.8l-0.5-0.5l-1.1,0.5l-0.6,1.2l-1.1-0.2l-0.1-1.4l1.4,0.1l-0.5-0.7l-0.3-0.6l1.1-0.4
	l0.6-0.8h0.5l-0.1-0.5l0.3-0.4l0.2,0.7h1.4l0.4-1l0.5,0.2l-0.2-0.7l0.8-0.3l-0.3-0.3l-0.6,0.3l-0.3-0.6l0,0l0,0l-0.1-0.3l0.3-0.2
	l0.3-0.7h-0.3l-0.4,0.5l-0.4,0.8l0.4,0.5l-0.4,1.1l-0.6,0.2l-0.4-1.1l-0.7,0.5l-0.4-0.2V495l0.6-0.5l0.5-1.3l1.3-0.7l3.3,0.6
	c3.9-0.4,11.1-3.6,11.1-3.6l11.4,4l0.4,1.2l-1.6,0.9L-393,495.9z M-412.8,500.3l-1.8-1l-0.6,1l0.2,0.4l1.1-0.2l0.8,0.2L-412.8,500.3
	z M-410.9,501.4l-0.1-1l-0.4-0.5l0.4-0.2v-0.5l-1.1,0.6l0.4,1l-0.2,0.7L-410.9,501.4z M-432.7,490l-1.1-0.3l-1.4,1.4l1.8,4.5
	l0.8,0.2l0.1-1.5l0.6-0.3v-0.6l0.6-1.1l-0.4-0.8L-432.7,490z"/>
<path fill="#3C4250" d="M-387,473.3h-75V529h75V473.3z M-457.7,477.6h32.1v47.1h-32.1V477.6z M-391.3,477.6v47.1h-32.1v-47.1H-391.3
	z"/>
</svg>
