<?xml version="1.0" encoding="utf-8"?>
<!-- Generator: Adobe Illustrator 18.0.0, SVG Export Plug-In . SVG Version: 6.00 Build 0)  -->
<!DOCTYPE svg PUBLIC "-//W3C//DTD SVG 1.0//EN" "http://www.w3.org/TR/2001/REC-SVG-20010904/DTD/svg10.dtd">
<svg version="1.0" id="Ebene_1" xmlns="http://www.w3.org/2000/svg" xmlns:xlink="http://www.w3.org/1999/xlink" x="0px" y="0px"
	 width="75px" height="54px" viewBox="0 0 75 54" enable-background="new 0 0 75 54" xml:space="preserve">
<g>
	<polygon fill="#3C4250" points="51.5,35.9 51.4,35.2 50.4,35.9 50.4,37.2 51,37.5 	"/>
	<polygon fill="#3C4250" points="42,22.8 43.1,22.5 43.5,22.1 42.6,20.3 42,20.7 42.1,21.2 41.6,21.6 41.5,22 42,22 	"/>
	<polygon fill="#3C4250" points="30.4,21.7 30.5,20.3 31,20 31.1,19.5 31.7,18.4 31.3,17.6 30.3,16.1 29.2,15.8 27.8,17.2 
		29.6,21.6 	"/>
	<polygon fill="#3C4250" points="10.1,20.2 11.5,19.5 13.5,20.8 15,23.6 15,26.1 16.2,27.9 18.1,30.5 20.2,31.2 21.1,31.6 
		22.2,32.9 22.9,32.8 22.1,34.1 22.8,36.7 25,38.6 22,44.3 23.1,46 24.8,46.4 23.8,45.3 25.2,42.7 28.3,40.2 28.5,39.1 30,38.9 
		31.5,35.9 28.9,34.7 28.6,33.6 26.5,32.1 23.5,31.9 23.1,32.6 22.5,32.4 22.2,31.3 21.3,31.2 21.7,30.2 20.9,30.1 20.2,30.7 
		19.6,30 20.1,28.8 22.1,28.5 22.5,29.5 23,29.4 23,28.5 24.4,26.6 26.2,25.7 28.6,24.7 26.9,21.2 26.2,21.6 25.6,20.1 24.1,20.1 
		23.8,22.9 23.2,23 21.1,20.8 21.1,19.6 23,19.2 23,16.5 17.8,17 15,15.4 13.8,16.6 10.1,14.7 8.2,15.9 8.9,17 8.1,17 7.9,17.7 
		9,17.9 7.9,18.7 8.2,19.9 9.2,20.1 7.6,21.3 	"/>
	<polygon fill="#3C4250" points="62,39 62.5,39.2 64.7,38.7 65.5,39.2 65.9,39 66.2,39.8 67.2,40 68,39.6 68.5,37.3 67.3,36.2 
		66.6,34.9 66.4,36 65.5,35.7 65.6,35.1 64.6,35 63.2,36.2 61.8,36.7 62.1,38.6 	"/>
	<polygon fill="#3C4250" points="62.6,32.3 61.1,33.2 61.3,33.9 62.4,34.1 62.9,32.6 	"/>
	<polygon fill="#3C4250" points="66.6,26.3 67.2,25.8 66.8,25.4 67,24.5 66.9,24 66.6,24 66.6,25.5 65.8,27.1 64.8,27.8 64.7,28.4 
		66.6,27.4 	"/>
	<polygon fill="#3C4250" points="64.8,33.5 65.9,34.6 66.6,34.7 66.9,34.4 67.9,35 67.5,34.2 65.7,33.4 	"/>
	<path fill="#3C4250" d="M0,0v54h75V0H0z M37,50H5V5h32V50z M71,19.3l-10.4-3.7c0,0-7,3.1-10.9,3.4l-3.3-0.6l-1.3,0.7l-0.5,1.2
		L44,20.9l0,1l0.4,0.2l0.7-0.4l0.4,1.1l0.6-0.2l0.4-1.1l-0.4-0.4l0.4-0.8l0.5-0.5l0.3,0L47,20.4l-0.3,0.2l0.1,0.3l0,0l0,0l0.3,0.6
		l0.7-0.2l0.3,0.3l-0.8,0.3l0.2,0.6l-0.5-0.2l-0.4,0.9l-1.4,0l-0.2-0.7L44.5,23l0.1,0.4l-0.5,0l-0.6,0.8l-1.1,0.3l0.3,0.6l0.5,0.7
		l-1.4-0.1l0.1,1.3l1.1,0.2l0.7-1.1l1.1-0.5l0.5,0.5l0.6,0.8l0.5-0.5l-0.9-0.6l0-0.5l0.4,0.2l0.7,0.5l0,0.5l0.5,0.6l0.2-0.8l0.3,0.1
		l0.4,0.6l1.2,0.2L48.9,28l-0.5,0.3l-1.7-0.4l-0.4,0.6l-1.1-0.7L45,27l-2.8,0.5l-1.4,1.7l-0.3,2.2l1.5,1.4l2.7-0.2l0.8,2.3l-0.3,1.3
		l1.3,2.9l1.4-0.2l1.4-2.6l0.8-0.6L49.9,34l1.4-1.2l0.4-1.5l-1.4,0.6l-1.4-3.1l0.3-0.1l1.4,2.6l2.7-1.5l-0.9-0.7l-0.7,0.3l-0.4-1
		l0.3-0.2l0.6,0.5l2.1,0.4l0.9,1l0.5,1.9l0.4-0.6v-0.7l1.9-1.1l0.7,1.2l0.6-0.1l0.1,1.2l0.5,0.9l-1.1-0.5l0.8,1.1l0.9,0.8l2.2,0.4
		l-1.2-0.5L60.7,34l-0.3-1.3l-0.7-0.7l0-0.7l0.8,0.8l0.8-0.6l-0.7-1l0.3-0.5l1.6-0.1l0.7-1.3L62.7,27l0.7-0.7l0.5,0.6l0.2,0.8
		l0.6-0.3l-0.2-0.9l0.5-0.7l0.8-0.1l0.9-2.4l-0.8-0.5l1.1-1l1.4,0.1l1.2-0.9l0.9-0.1l-1.5,1.7l0,1.5l1.1-1.3l0-1l0.8-0.2l0.1-0.3
		v17.9l-0.1-0.1L71,40v0.3l-1,1.2l0.7,0.1l0.3-0.6V50H39V5h32V19.3z M50.9,25.5l1.1-0.6v0.5l-0.4,0.2l0.4,0.5l0.2,1l-1-0.1l0.2-0.6
		L50.9,25.5z M50.2,26l-0.3,0.5l-0.8-0.2L48,26.5L47.8,26l0.6-0.9L50.2,26z"/>
</g>
</svg>
