<?xml version="1.0" encoding="utf-8"?>
<!-- Generator: Adobe Illustrator 18.1.0, SVG Export Plug-In . SVG Version: 6.00 Build 0)  -->
<!DOCTYPE svg PUBLIC "-//W3C//DTD SVG 1.0//EN" "http://www.w3.org/TR/2001/REC-SVG-20010904/DTD/svg10.dtd" [
	<!ENTITY ns_extend "http://ns.adobe.com/Extensibility/1.0/">
	<!ENTITY ns_ai "http://ns.adobe.com/AdobeIllustrator/10.0/">
	<!ENTITY ns_graphs "http://ns.adobe.com/Graphs/1.0/">
	<!ENTITY ns_vars "http://ns.adobe.com/Variables/1.0/">
	<!ENTITY ns_imrep "http://ns.adobe.com/ImageReplacement/1.0/">
	<!ENTITY ns_sfw "http://ns.adobe.com/SaveForWeb/1.0/">
	<!ENTITY ns_custom "http://ns.adobe.com/GenericCustomNamespace/1.0/">
	<!ENTITY ns_adobe_xpath "http://ns.adobe.com/XPath/1.0/">
]>
<svg version="1.0" id="Ebene_1" xmlns:x="&ns_extend;" xmlns:i="&ns_ai;" xmlns:graph="&ns_graphs;"
	 xmlns="http://www.w3.org/2000/svg" xmlns:xlink="http://www.w3.org/1999/xlink" x="0px" y="0px" width="53.6px" height="75px"
	 viewBox="-472 463 53.6 75" enable-background="new -472 463 53.6 75" xml:space="preserve">
<metadata>
	<sfw  xmlns="&ns_sfw;">
		<slices></slices>
		<sliceSourceBounds  width="53.6" height="75" y="0" x="0" bottomLeftOrigin="true"></sliceSourceBounds>
	</sfw>
</metadata>
<path fill="#3C4250" d="M-421.4,463H-469c-2.4,0-3,0.5-3,3v69c0,2.5,0.6,3,3,3h47.6c2.4,0,3-1.8,3-4.3V466
	C-418.4,463.5-419,463-421.4,463L-421.4,463z M-446.3,535.9c-1.7,0-2.1-1.3-2.1-2.1c0-1.2,0.9-2.1,2.1-2.1c1.3,0,2.1,0.7,2.1,2.1
	C-444.2,534.9-445,535.9-446.3,535.9C-446.3,535.9-445.1,535.9-446.3,535.9z M-420.6,527.3c0,2.2-2,2-2.1,2.1h-45
	c-0.2,0-2.1,0.6-2.1-2.1v-62.2c0-0.2-0.2,0,0,0h36.4h12.9c0,15,0,15,0,15v47.2H-420.6z"/>
<path fill="#3C4250" d="M-422.7,475.9h-45v40.7h45V475.9z M-424.9,508h-2.1c-1.9-5.1-2.6-11.8-6.5-11.8c-4.3,0-6.2,11.4-6.2,11.4
	s-2.1-11.6-8-17.8c-5.9-6.1-11.4,18.2-11.4,18.2h-6.5v-30h40.7C-424.9,478-424.9,508-424.9,508z"/>
<path fill="#3C4250" d="M-454.9,484.4c0,2.1-2.3,4.3-4.3,4.3s-4.3-2.2-4.3-4.3s2.3-4.2,4.3-4.3
	C-457.1,480.1-454.8,481.9-454.9,484.4L-454.9,484.4z"/>
<path fill="#3C4250" d="M-437.6,486.1c0.8,0,1.6-0.1,2.3-0.2c0.8,0.4,1.8,0.6,2.8,0.6c2.7,0,4.9-1.4,4.9-3.1c0-1.7-2.2-3.1-4.9-3.1
	c-1,0-1.9,0.2-2.7,0.5c-0.3-0.3-0.7-0.5-1.2-0.5h-0.7c-0.9,0-1.6,0.7-1.7,1.6c-2.2,0.2-3.8,1.1-3.8,2.1
	C-442.7,485.2-440.4,486.1-437.6,486.1L-437.6,486.1z"/>
</svg>
