<?xml version="1.0" encoding="utf-8"?>
<!-- Generator: Adobe Illustrator 18.0.0, SVG Export Plug-In . SVG Version: 6.00 Build 0)  -->
<!DOCTYPE svg PUBLIC "-//W3C//DTD SVG 1.0//EN" "http://www.w3.org/TR/2001/REC-SVG-20010904/DTD/svg10.dtd">
<svg version="1.0" id="Ebene_1" xmlns="http://www.w3.org/2000/svg" xmlns:xlink="http://www.w3.org/1999/xlink" x="0px" y="0px"
	 viewBox="0 0 53.6 75" enable-background="new 0 0 53.6 75" xml:space="preserve">
<path fill="#3C4250" d="M50.6,0H3C0.6,0,0,0.5,0,3v69c0,2.5,0.6,3,3,3h47.6c2.4,0,3-1.8,3-4.3V3C53.6,0.5,53,0,50.6,0L50.6,0z
	 M25.7,72.9c-1.7,0-2.1-1.3-2.1-2.1c0-1.2,0.9-2.1,2.1-2.1c1.3,0,2.1,0.7,2.1,2.1C27.8,71.9,27,72.9,25.7,72.9
	C25.7,72.9,26.9,72.9,25.7,72.9z M51.4,64.3c0,2.2-2,2-2.1,2.1h-45c-0.2,0-2.1,0.6-2.1-2.1V2.1c0-0.2-0.2,0,0,0h36.4h12.9
	c0,15,0,15,0,15V64.3z"/>
<path fill="#3C4250" d="M49.3,12.9h-45v40.7h45V12.9z M47.1,45H45c-1.9-5.1-2.6-11.8-6.5-11.8c-4.3,0-6.2,11.4-6.2,11.4
	s-2.1-11.6-8-17.8C18.4,20.7,12.9,45,12.9,45H6.4V15h40.7V45z M47.1,45"/>
<path fill="#3C4250" d="M17.1,21.4c0,2.1-2.3,4.3-4.3,4.3c-2,0-4.3-2.2-4.3-4.3c0-2.1,2.3-4.2,4.3-4.3
	C14.9,17.1,17.2,18.9,17.1,21.4L17.1,21.4z"/>
<path fill="#3C4250" d="M34.4,23.1c0.8,0,1.6-0.1,2.3-0.2c0.8,0.4,1.8,0.6,2.8,0.6c2.7,0,4.9-1.4,4.9-3.1c0-1.7-2.2-3.1-4.9-3.1
	c-1,0-1.9,0.2-2.7,0.5c-0.3-0.3-0.7-0.5-1.2-0.5h-0.7c-0.9,0-1.6,0.7-1.7,1.6c-2.2,0.2-3.8,1.1-3.8,2.1
	C29.3,22.2,31.6,23.1,34.4,23.1L34.4,23.1z M34.4,23.1"/>
</svg>
