<?xml version="1.0" encoding="utf-8"?>
<!-- Generator: Adobe Illustrator 18.0.0, SVG Export Plug-In . SVG Version: 6.00 Build 0)  -->
<!DOCTYPE svg PUBLIC "-//W3C//DTD SVG 1.0//EN" "http://www.w3.org/TR/2001/REC-SVG-20010904/DTD/svg10.dtd">
<svg version="1.0" id="Ebene_1" xmlns="http://www.w3.org/2000/svg" xmlns:xlink="http://www.w3.org/1999/xlink" x="0px" y="0px"
	 width="54px" height="75px" viewBox="0 0 54 75" enable-background="new 0 0 54 75" xml:space="preserve">
<g>
	<path fill="#3C4250" d="M51,0H3C0.6,0,0,0.5,0,3v69c0,2.5,0.6,3,3,3h48c2.4,0,3-1.8,3-4.3V3C54,0.5,53.4,0,51,0z M25.9,72.9
		c-1.7,0-2.2-1.3-2.2-2.1c0-1.2,0.9-2.1,2.2-2.1c1.3,0,2.2,0.7,2.2,2.1C28,71.9,27.2,72.9,25.9,72.9z M52,17.1v47.1
		c0,2.2-2.2,2.7-2.3,2.7H4.3C4.1,67,2,67,2,64.3V2h36.9H52C52,17,52,17.1,52,17.1z"/>
	<path fill="#3C4250" d="M5,54h45V13H5V54z M7,15h41v30h-2.6c-1.9-5-2.6-11.8-6.6-11.8c-4.3,0-6.3,11.4-6.3,11.4s-2.1-11.6-8.1-17.8
		C18.5,20.7,13,45,13,45H7V15z"/>
	<path fill="#3C4250" d="M17.3,21.4c0-2.5-2.3-4.4-4.3-4.3c-2,0.1-4.3,2.2-4.3,4.3c0,2.1,2.3,4.3,4.3,4.3
		C15,25.7,17.3,23.6,17.3,21.4z"/>
	<path fill="#3C4250" d="M34.7,23.1c0.8,0,1.6-0.1,2.3-0.2c0.8,0.4,1.8,0.6,2.8,0.6c2.7,0,4.9-1.4,4.9-3.1c0-1.7-2.2-3.1-4.9-3.1
		c-1,0-2,0.6-2.7,0.9c-0.3-0.3-0.8-0.2-1.2-0.2h-0.7c-0.9,0-1.6,0.4-1.7,1.3c-2.2,0.2-3.8,0.9-3.8,1.9
		C29.6,22.3,31.9,23.1,34.7,23.1z"/>
</g>
</svg>
