<?xml version="1.0" encoding="utf-8"?>
<!-- Generator: Adobe Illustrator 18.1.0, SVG Export Plug-In . SVG Version: 6.00 Build 0)  -->
<!DOCTYPE svg PUBLIC "-//W3C//DTD SVG 1.0//EN" "http://www.w3.org/TR/2001/REC-SVG-20010904/DTD/svg10.dtd" [
	<!ENTITY ns_extend "http://ns.adobe.com/Extensibility/1.0/">
	<!ENTITY ns_ai "http://ns.adobe.com/AdobeIllustrator/10.0/">
	<!ENTITY ns_graphs "http://ns.adobe.com/Graphs/1.0/">
	<!ENTITY ns_vars "http://ns.adobe.com/Variables/1.0/">
	<!ENTITY ns_imrep "http://ns.adobe.com/ImageReplacement/1.0/">
	<!ENTITY ns_sfw "http://ns.adobe.com/SaveForWeb/1.0/">
	<!ENTITY ns_custom "http://ns.adobe.com/GenericCustomNamespace/1.0/">
	<!ENTITY ns_adobe_xpath "http://ns.adobe.com/XPath/1.0/">
]>
<svg version="1.0" id="Ebene_1" xmlns:x="&ns_extend;" xmlns:i="&ns_ai;" xmlns:graph="&ns_graphs;"
	 xmlns="http://www.w3.org/2000/svg" xmlns:xlink="http://www.w3.org/1999/xlink" x="0px" y="0px" width="75px" height="68.6px"
	 viewBox="-462 466.4 75 68.6" enable-background="new -462 466.4 75 68.6" xml:space="preserve">
<metadata>
	<sfw  xmlns="&ns_sfw;">
		<slices></slices>
		<sliceSourceBounds  width="75" height="68.6" y="0" x="0" bottomLeftOrigin="true"></sliceSourceBounds>
	</sfw>
</metadata>
<path fill="#3C4250" d="M-390,466.4h-69c-0.8,0-3,2.1-3,3V532c0,0.9,3,3,3,3h69c0.8,0,3-2.1,3-3v-62.6
	C-387,468.5-389.2,466.4-390,466.4L-390,466.4z M-393.4,517.8h-6.4c-2.7-7.2-2.5-16.8-8.3-17.1c-6-0.3-8.9,17.1-8.9,17.1
	s-2.8-17.4-11-26s-14.7,26-14.7,26h-12.9v-45h62.1v45H-393.4z"/>
<path fill="#3C4250" d="M-438,484.3c0,3-3.2,6-6,6s-6-3-6-6c0-2.9,3.2-6,6-6S-438,481.3-438,484.3L-438,484.3z"/>
<path fill="#3C4250" d="M-410.8,486.6c1.1,0,2.2-0.1,3.2-0.3c1.1,0.5,2.5,0.8,3.9,0.8c3.7,0,6.8-1.9,6.8-4.3s-3.1-4.3-6.8-4.3
	c-1.4,0-2.7,0.3-3.8,0.7c-0.4-0.5-1-0.7-1.7-0.7h-1c-1.3,0-2.2,1-2.4,2.3c-3,0.3-5.3,1.5-5.3,2.9
	C-417.9,485.3-414.7,486.6-410.8,486.6L-410.8,486.6z"/>
</svg>
