<?xml version="1.0" encoding="utf-8"?>
<!-- Generator: Adobe Illustrator 18.0.0, SVG Export Plug-In . SVG Version: 6.00 Build 0)  -->
<!DOCTYPE svg PUBLIC "-//W3C//DTD SVG 1.0//EN" "http://www.w3.org/TR/2001/REC-SVG-20010904/DTD/svg10.dtd">
<svg version="1.0" id="Ebene_1" xmlns="http://www.w3.org/2000/svg" xmlns:xlink="http://www.w3.org/1999/xlink" x="0px" y="0px"
	 width="75px" height="69px" viewBox="0 0 75 69" enable-background="new 0 0 75 69" xml:space="preserve">
<g>
	<path fill="#3C4250" d="M72,0H3C2.2,0,0,2.1,0,3v63c0,0.9,3,3,3,3h69c0.8,0,3-2.1,3-3V3C75,2.1,72.8,0,72,0z M69,51h-6.9
		c-2.7-7-2.5-16.5-8.3-16.8c-6-0.3-8.9,17.4-8.9,17.4s-2.8-17.8-11-26.4C25.8,16.4,19.3,51,19.3,51H7V6h62V51z"/>
	<path fill="#3C4250" d="M18,24c2.8,0,6-3,6-6c0-3-3.2-6-6-6c-2.8,0-6,3-6,6C12,21,15.2,24,18,24z"/>
	<path fill="#3C4250" d="M51.2,20.4c1.1,0,2.2-0.1,3.2-0.3c1.1,0.5,2.5,0.8,3.9,0.8c3.7,0,6.8-1.9,6.8-4.3c0-2.4-3.1-4.3-6.8-4.3
		c-1.4,0-2.7,0.2-3.8,0.7c-0.4-0.5-1-0.8-1.7-0.8h-1c-1.3,0-2.2,1.1-2.4,2.4c-3,0.3-5.3,1.5-5.3,2.9C44.1,19,47.3,20.4,51.2,20.4z"
		/>
</g>
</svg>
