<?xml version="1.0" encoding="utf-8"?>
<!-- Generator: Adobe Illustrator 18.1.0, SVG Export Plug-In . SVG Version: 6.00 Build 0)  -->
<!DOCTYPE svg PUBLIC "-//W3C//DTD SVG 1.0//EN" "http://www.w3.org/TR/2001/REC-SVG-20010904/DTD/svg10.dtd">
<svg version="1.0" id="Ebene_1" xmlns="http://www.w3.org/2000/svg" xmlns:xlink="http://www.w3.org/1999/xlink" x="0px" y="0px"
	 width="75px" height="73px" viewBox="0 0 75 73" enable-background="new 0 0 75 73" xml:space="preserve">
<path fill="#3C4250" d="M72.9,44.3c-1.4-1.8-3.3-2.7-5.7-2.7c-1.3,0-2.5,0.2-3.7,0.7c-1.2,0.5-2.2,1-2.9,1.6
	c-0.7,0.6-1.5,1.1-2.4,1.6c-0.9,0.5-1.6,0.7-2.3,0.7c-1.4,0-2.7-0.7-4-2.1c-1.1-1.1-1.6-3-1.6-5.4c0-2.9,0.4-6.7,1.1-11.4
	c0-0.1,0.1-0.4,0.2-1c0.1-0.6,0.1-1.1,0.2-1.6c0.1-0.5,0.1-0.8,0.2-0.8v-0.1c-1.4,0.1-3.9,0.3-7.3,0.8c-3.5,0.5-6.2,0.7-8.1,0.7
	c-1.8,0-3.4-0.4-4.6-1.2c-1.3-0.8-1.9-2.1-1.9-3.9c0-1.1,0.3-2.2,0.8-3.3c0.5-1.1,1.1-1.9,1.7-2.6c0.6-0.7,1.2-1.6,1.7-2.7
	c0.5-1.1,0.8-2.3,0.8-3.6c0-2.4-0.8-4.4-2.4-5.7c-1.6-1.4-3.6-2.1-6-2.1c-2.6,0-4.7,0.7-6.5,2.1c-1.8,1.4-2.7,3.4-2.7,5.9
	c0,1.3,0.2,2.6,0.7,3.9c0.4,1.2,1,2.2,1.5,3c0.6,0.8,1.1,1.6,1.5,2.5c0.5,0.9,0.7,1.7,0.7,2.3c0,1.4-0.7,2.8-2.1,4.1
	c-1.1,1.1-2.9,1.6-5.3,1.6c-2.9,0-6.5-0.4-11-1.1c-0.1,0-0.4-0.1-1-0.2c-0.6-0.1-1.1-0.2-1.5-0.2c-0.5-0.1-0.7-0.1-0.8-0.2v47.6
	c0,0,0,0,0.1,0c0.1,0,0.1,0,0.1,0l0.6,0.1c0.3,0.1,0.7,0.1,1.2,0.2c0.6,0.1,1,0.1,1.2,0.2c4.5,0.7,8.2,1.1,11,1.1
	c2.4,0,4.2-0.5,5.3-1.6c1.4-1.4,2.1-2.7,2.1-4.1c0-0.7-0.2-1.5-0.7-2.3c-0.5-0.9-1-1.7-1.5-2.5c-0.6-0.8-1.1-1.8-1.5-3
	c-0.5-1.2-0.7-2.5-0.7-3.9c0-2.5,0.9-4.5,2.7-5.9c1.8-1.4,3.9-2.1,6.4-2.1c2.4,0,4.5,0.7,6.1,2.1c1.6,1.4,2.4,3.3,2.4,5.7
	c0,1.3-0.3,2.5-0.8,3.6c-0.5,1.1-1.1,2-1.7,2.7c-0.6,0.7-1.2,1.6-1.7,2.6c-0.5,1.1-0.8,2.2-0.8,3.3c0,1.8,0.6,3.1,1.9,3.9
	c1.3,0.8,2.8,1.2,4.6,1.2c1.4,0,2.9-0.1,4.4-0.2c1.6-0.2,3.3-0.4,5.2-0.6c1.9-0.3,3.4-0.4,4.4-0.5c0.3,0,0.8,0,1.5,0V71
	c0-1.2-0.2-3-0.7-5.3c-0.5-2.4-0.7-4.1-0.7-5.3c0-3.8,1.7-5.8,5-5.8c1.1,0,2.2,0.3,3.2,0.8c1,0.5,1.9,1.1,2.5,1.8
	c0.7,0.6,1.6,1.2,2.7,1.8c1.1,0.5,2.3,0.8,3.5,0.8c2.4,0,4.2-0.8,5.6-2.5c1.3-1.7,2-3.8,2-6.3C75,48.4,74.3,46.2,72.9,44.3
	L72.9,44.3z M72.9,44.3"/>
</svg>
