<?xml version="1.0" encoding="utf-8"?>
<!-- Generator: Adobe Illustrator 18.1.0, SVG Export Plug-In . SVG Version: 6.00 Build 0)  -->
<!DOCTYPE svg PUBLIC "-//W3C//DTD SVG 1.0//EN" "http://www.w3.org/TR/2001/REC-SVG-20010904/DTD/svg10.dtd" [
	<!ENTITY ns_extend "http://ns.adobe.com/Extensibility/1.0/">
	<!ENTITY ns_ai "http://ns.adobe.com/AdobeIllustrator/10.0/">
	<!ENTITY ns_graphs "http://ns.adobe.com/Graphs/1.0/">
	<!ENTITY ns_vars "http://ns.adobe.com/Variables/1.0/">
	<!ENTITY ns_imrep "http://ns.adobe.com/ImageReplacement/1.0/">
	<!ENTITY ns_sfw "http://ns.adobe.com/SaveForWeb/1.0/">
	<!ENTITY ns_custom "http://ns.adobe.com/GenericCustomNamespace/1.0/">
	<!ENTITY ns_adobe_xpath "http://ns.adobe.com/XPath/1.0/">
]>
<svg version="1.0" id="Ebene_1" xmlns:x="&ns_extend;" xmlns:i="&ns_ai;" xmlns:graph="&ns_graphs;"
	 xmlns="http://www.w3.org/2000/svg" xmlns:xlink="http://www.w3.org/1999/xlink" x="0px" y="0px" width="75px" height="72.9px"
	 viewBox="-462 464.1 75 72.9" enable-background="new -462 464.1 75 72.9" xml:space="preserve">
<metadata>
	<sfw  xmlns="&ns_sfw;">
		<slices></slices>
		<sliceSourceBounds  width="74.9" height="72.7" y="0" x="0.2" bottomLeftOrigin="true"></sliceSourceBounds>
	</sfw>
</metadata>
<path fill="#3C4250" d="M-389.1,508.4c-1.4-1.8-3.3-2.7-5.7-2.7c-1.3,0-2.5,0.2-3.7,0.7s-2.2,1-2.9,1.6c-0.7,0.6-1.5,1.1-2.4,1.6
	c-0.9,0.5-1.6,0.7-2.3,0.7c-1.4,0-2.7-0.7-4-2.1c-1.1-1.1-1.6-2.9-1.6-5.4c0-2.9,0.4-6.7,1.1-11.4c0-0.1,0.1-0.4,0.2-1
	s0.1-1.1,0.2-1.6c0.1-0.5,0.1-0.8,0.2-0.8v-0.1c-1.4,0.1-3.9,0.3-7.3,0.8c-3.5,0.5-6.2,0.7-8.1,0.7c-1.8,0-3.4-0.4-4.6-1.2
	c-1.3-0.8-1.9-2.1-1.9-3.9c0-1.1,0.3-2.2,0.8-3.3c0.5-1,1.1-1.9,1.7-2.6c0.6-0.7,1.2-1.6,1.7-2.7c0.5-1.1,0.8-2.3,0.8-3.6
	c0-2.4-0.8-4.4-2.4-5.7c-1.6-1.4-3.6-2.1-6-2.1c-2.6,0-4.7,0.7-6.5,2.1c-1.8,1.4-2.7,3.4-2.7,5.9c0,1.3,0.2,2.6,0.7,3.8
	c0.4,1.2,1,2.2,1.5,3c0.6,0.8,1.1,1.6,1.5,2.5c0.5,0.9,0.7,1.7,0.7,2.3c0,1.4-0.7,2.8-2.1,4.1c-1.1,1.1-2.9,1.6-5.3,1.6
	c-2.9,0-6.5-0.4-11-1.1c-0.1,0-0.4-0.1-1-0.2c-0.6-0.1-1.1-0.2-1.5-0.2c-0.5-0.1-0.7-0.1-0.8-0.2v47.5c0,0,0,0,0.1,0
	c0.1,0,0.1,0,0.1,0l0.6,0.1c0.3,0.1,0.7,0.1,1.2,0.2c0.6,0.1,1,0.1,1.2,0.2c4.5,0.7,8.2,1.1,11,1.1c2.4,0,4.2-0.5,5.3-1.6
	c1.4-1.4,2.1-2.7,2.1-4.1c0-0.7-0.2-1.5-0.7-2.3c-0.5-0.9-1-1.7-1.5-2.5c-0.6-0.8-1.1-1.8-1.5-3c-0.5-1.2-0.7-2.5-0.7-3.8
	c0-2.5,0.9-4.5,2.7-5.9c1.8-1.4,3.9-2.1,6.4-2.1c2.4,0,4.5,0.7,6.1,2.1c1.6,1.4,2.4,3.3,2.4,5.7c0,1.3-0.3,2.5-0.8,3.6
	c-0.5,1.1-1.1,2-1.7,2.7s-1.2,1.6-1.7,2.6c-0.5,1.1-0.8,2.1-0.8,3.3c0,1.8,0.6,3.1,1.9,3.9c1.3,0.8,2.8,1.2,4.6,1.2
	c1.4,0,2.9-0.1,4.4-0.2c1.6-0.2,3.3-0.4,5.2-0.6c1.9-0.3,3.4-0.4,4.4-0.5c0.3,0,0.8,0,1.5,0v-0.2c0-1.2-0.2-3-0.7-5.3
	s-0.7-4.1-0.7-5.3c0-3.8,1.7-5.8,5-5.8c1.1,0,2.2,0.3,3.2,0.8s1.9,1.1,2.5,1.8c0.7,0.6,1.6,1.2,2.7,1.8c1.1,0.5,2.3,0.8,3.5,0.8
	c2.4,0,4.2-0.8,5.6-2.5c1.3-1.7,2-3.8,2-6.3C-387,512.4-387.7,510.2-389.1,508.4L-389.1,508.4z"/>
</svg>
