<?xml version="1.0" encoding="utf-8"?>
<!-- Generator: Adobe Illustrator 18.1.0, SVG Export Plug-In . SVG Version: 6.00 Build 0)  -->
<!DOCTYPE svg PUBLIC "-//W3C//DTD SVG 1.0//EN" "http://www.w3.org/TR/2001/REC-SVG-20010904/DTD/svg10.dtd" [
	<!ENTITY ns_extend "http://ns.adobe.com/Extensibility/1.0/">
	<!ENTITY ns_ai "http://ns.adobe.com/AdobeIllustrator/10.0/">
	<!ENTITY ns_graphs "http://ns.adobe.com/Graphs/1.0/">
	<!ENTITY ns_vars "http://ns.adobe.com/Variables/1.0/">
	<!ENTITY ns_imrep "http://ns.adobe.com/ImageReplacement/1.0/">
	<!ENTITY ns_sfw "http://ns.adobe.com/SaveForWeb/1.0/">
	<!ENTITY ns_custom "http://ns.adobe.com/GenericCustomNamespace/1.0/">
	<!ENTITY ns_adobe_xpath "http://ns.adobe.com/XPath/1.0/">
]>
<svg version="1.0" id="Ebene_1" xmlns:x="&ns_extend;" xmlns:i="&ns_ai;" xmlns:graph="&ns_graphs;"
	 xmlns="http://www.w3.org/2000/svg" xmlns:xlink="http://www.w3.org/1999/xlink" x="0px" y="0px" width="66.4px" height="75px"
	 viewBox="-466 463 66.4 75" enable-background="new -466 463 66.4 75" xml:space="preserve">
<metadata>
	<sfw  xmlns="&ns_sfw;">
		<slices></slices>
		<sliceSourceBounds  width="66.5" height="74.9" y="0.1" x="0" bottomLeftOrigin="true"></sliceSourceBounds>
	</sfw>
</metadata>
<path fill="#3C4250" d="M-431.7,480.1c1.2,0,0.9,0.1,2.1,0c0.3,2.7-0.1,7.4,0,10.7l12.9,8.6l-1-0.4c1.9,1,5.2,2.6,5.2,2.6
	s0-1.2,0-2.1h6.5c-0.2,2.4,0.8,4.2,0,6.4l4.1,2.2c1.5-3.8,2.4-7.8,2.4-12.1c0-18.2-14.9-33-33.2-33c-18.4,0-33.3,14.8-33.3,33
	c0,17.8,16.5,32.9,34.3,33.5V523c-2.1-1.4-3.8-4.9-4.3-8.6c0.5-0.1,3.8,0,4.3,0V508c-0.6,0-3.7,0-4.3,0c0-3.6,0.1-4.4,0-8.6h4.3V493
	h-4.3c0.1-4.2-0.3-9.6,0-12.9c1.2,0.1,0.9,0,2.1,0H-431.7z M-423.2,493c0-2.7-1.9-6.7-2.4-11.3c2.2-0.5,4.3-1.2,6.3-2.1
	c1.6,4,2.2,8.3,2.5,13.5h-6.4V493z M-413.1,475.9c4.7,4.6,6.5,10.2,7.1,17.1h-6.4c-0.3-5.8-1.6-10.7-3.5-15.2
	C-414.9,477.2-414,476.6-413.1,475.9L-413.1,475.9z M-416,473.4c-0.5,0.4-1,0.7-1.5,1.1c-0.7-1.2-1.4-2.3-2.2-3.4
	C-418.4,471.8-417.2,472.6-416,473.4L-416,473.4z M-420.8,476.2c-1.6,0.8-3.4,1.4-5.2,1.8c-0.5-3.6-1.2-7-2.2-9.6
	C-425.3,469.9-422.8,472.6-420.8,476.2L-420.8,476.2z M-433.9,467.3C-433.8,467.3-434,467.3-433.9,467.3s2,0,2.1,0
	c0.9,1.5,1.3,5.8,2.1,11.4c-1.1,0.1-2.1-0.7-3.1-0.7c-1.1,0-2,0.1-3,0C-435,472.4-434.8,468.8-433.9,467.3L-433.9,467.3z
	 M-445.9,471.1c-0.8,1-1.5,2.2-2.2,3.4c-0.5-0.3-1-0.7-1.5-1.1C-448.5,472.6-447.2,471.8-445.9,471.1L-445.9,471.1z M-442.4,493
	h-8.4c0.3-5.1,2.9-9.4,4.5-13.4c2,0.9,4.1,1.6,6.2,2.1C-440.6,486.3-442.4,490.3-442.4,493L-442.4,493z M-440.1,510.2
	c-2.2,0.5-4.2,1.2-6.2,2.1c-1.7-4-4.4-7.8-4.7-12.9h8.6C-442.4,502.2-440.6,505.6-440.1,510.2L-440.1,510.2z M-452.5,516
	c-4.7-4.5-6.5-9.7-7.1-16.6h6.4c0.3,5.8,1.6,10.2,3.5,14.7C-450.7,514.7-451.6,515.4-452.5,516L-452.5,516z M-453.9,493h-5.7
	c0.6-6.9,2.4-12.6,7.1-17.1c0.9,0.7,1.8,1.3,2.8,1.9C-451.6,482.3-453.6,487.2-453.9,493L-453.9,493z M-449.6,518.5
	c0.5-0.4,1-0.7,1.5-1c0.7,1.2,1.4,2.3,2.2,3.4C-447.2,520.1-448.5,519.3-449.6,518.5L-449.6,518.5z M-444.7,515.6
	c1.6-0.7,3.3-1.3,5.1-1.8c0.5,3.5,1.2,6.9,2.2,9.6C-440.2,522-442.7,519.2-444.7,515.6L-444.7,515.6z M-439.6,478
	c-1.7-0.4-3.4-1-5.1-1.8c2-3.6,4.5-6.3,7.3-7.8C-438.4,471.1-439.2,474.5-439.6,478L-439.6,478z"/>
<path fill="#3C4250" d="M-429.6,495.1v36.4l8.9-8.6l10.4,15l8.6-6.4l-10.7-15h12.9L-429.6,495.1z"/>
</svg>
