<?xml version="1.0" encoding="utf-8"?>
<!-- Generator: Adobe Illustrator 18.1.0, SVG Export Plug-In . SVG Version: 6.00 Build 0)  -->
<!DOCTYPE svg PUBLIC "-//W3C//DTD SVG 1.0//EN" "http://www.w3.org/TR/2001/REC-SVG-20010904/DTD/svg10.dtd">
<svg version="1.0" id="Ebene_1" xmlns="http://www.w3.org/2000/svg" xmlns:xlink="http://www.w3.org/1999/xlink" x="0px" y="0px"
	 width="66px" height="75px" viewBox="0 0 66 75" enable-background="new 0 0 66 75" xml:space="preserve">
<g>
	<path fill="#3C4250" d="M34.1,17.1c1.2,0,0.9,0.1,2.1,0c0.3,2.7-0.1,7.4,0,10.7L49,36.4L48,36c1.9,1,5.2,2.6,5.2,2.6s0-1.2,0-2.1
		h6.4c-0.2,2.4,0.8,4.2,0,6.4l4,2.2C65.1,41.3,66,37.2,66,33C66,14.8,51.2,0,33,0C14.8,0,0,14.8,0,33c0,17.8,16.3,32.9,34.1,33.5V60
		c-2.1-1.4-3.7-4.9-4.3-8.6c0.5-0.1,3.8,0,4.3,0V45c-0.6,0-3.7,0-4.3,0c0-3.6,0.1-4.4,0-8.6h4.3V30h-4.3c0.1-4.2-0.3-9.6,0-12.9
		c1.2,0.1,0.9,0,2.1,0H34.1z M42.6,30c0-2.7-1.9-6.7-2.3-11.3c2.2-0.5,4.3-1.2,6.3-2.1c1.6,4,2.2,8.3,2.5,13.5H42.6z M52.6,12.9
		c4.7,4.6,6.4,10.2,7,17.1h-6.4c-0.3-5.8-1.6-10.7-3.5-15.2C50.7,14.2,51.7,13.6,52.6,12.9L52.6,12.9z M49.7,10.4
		c-0.5,0.4-1,0.7-1.5,1.1c-0.7-1.2-1.4-2.3-2.2-3.4C47.3,8.8,48.5,9.6,49.7,10.4L49.7,10.4z M44.9,13.2c-1.7,0.8-3.4,1.4-5.1,1.8
		c-0.5-3.6-1.2-7-2.2-9.6C40.4,6.9,42.9,9.6,44.9,13.2L44.9,13.2z M31.9,4.3C32,4.3,31.8,4.3,31.9,4.3c0.1,0,2,0,2.1,0
		c0.9,1.5,1.3,5.8,2.1,11.4C35.1,15.8,34.1,15,33,15c-1.1,0-1.9,0.1-3,0C30.8,9.4,31,5.8,31.9,4.3L31.9,4.3z M20,8.1
		c-0.8,1-1.5,2.2-2.1,3.4c-0.5-0.3-1-0.7-1.5-1.1C17.4,9.6,18.7,8.8,20,8.1L20,8.1z M23.4,30l-8.3,0c0.3-5.1,2.9-9.4,4.5-13.4
		c2,0.9,4.1,1.6,6.2,2.1C25.3,23.3,23.5,27.3,23.4,30L23.4,30z M25.8,47.2c-2.1,0.5-4.2,1.2-6.2,2.1c-1.6-4-4.4-7.8-4.7-12.9h8.5
		C23.5,39.2,25.3,42.6,25.8,47.2L25.8,47.2z M13.4,53c-4.7-4.6-6.4-9.7-7-16.6h6.4c0.3,5.8,1.6,10.2,3.4,14.7
		C15.2,51.7,14.3,52.4,13.4,53L13.4,53z M12.1,30l-5.7,0c0.6-6.9,2.3-12.6,7-17.1c0.9,0.7,1.8,1.3,2.8,1.9
		C14.3,19.3,12.3,24.2,12.1,30L12.1,30z M16.3,55.5c0.5-0.4,1-0.7,1.5-1c0.7,1.2,1.4,2.3,2.1,3.4C18.7,57.1,17.4,56.3,16.3,55.5
		L16.3,55.5z M21.1,52.6c1.6-0.7,3.3-1.3,5.1-1.8c0.5,3.5,1.2,6.9,2.2,9.6C25.6,59,23.1,56.2,21.1,52.6L21.1,52.6z M26.2,15
		c-1.7-0.4-3.4-1-5.1-1.8c2-3.6,4.5-6.3,7.3-7.8C27.4,8.1,26.7,11.5,26.2,15L26.2,15z M26.2,15"/>
	<path fill="#3C4250" d="M36.2,32.1v36.4L45,60l10.3,15l8.5-6.4l-10.6-15H66L36.2,32.1z"/>
</g>
</svg>
