<?xml version="1.0" encoding="utf-8"?>
<!-- Generator: Adobe Illustrator 18.0.0, SVG Export Plug-In . SVG Version: 6.00 Build 0)  -->
<!DOCTYPE svg PUBLIC "-//W3C//DTD SVG 1.0//EN" "http://www.w3.org/TR/2001/REC-SVG-20010904/DTD/svg10.dtd">
<svg version="1.0" id="Ebene_1" xmlns="http://www.w3.org/2000/svg" xmlns:xlink="http://www.w3.org/1999/xlink" x="0px" y="0px"
	 viewBox="0 0 66.4 75" enable-background="new 0 0 66.4 75" xml:space="preserve" width="68px" height="76px">
<path fill="#3C4250" d="M34.3,17.1c1.2,0,0.9,0.1,2.1,0c0.3,2.7-0.1,7.4,0,10.7l12.9,8.6L48.3,36c1.9,1,5.2,2.6,5.2,2.6s0-1.2,0-2.1
	H60c-0.2,2.4,0.8,4.2,0,6.4l4.1,2.2c1.5-3.8,2.4-7.8,2.4-12.1c0-18.2-14.9-33-33.2-33C14.9,0,0,14.8,0,33
	c0,17.8,16.5,32.9,34.3,33.5V60c-2.1-1.4-3.8-4.9-4.3-8.6c0.5-0.1,3.8,0,4.3,0V45c-0.6,0-3.7,0-4.3,0c0-3.6,0.1-4.4,0-8.6h4.3V30H30
	c0.1-4.2-0.3-9.6,0-12.9c1.2,0.1,0.9,0,2.1,0H34.3z M42.8,30c0-2.7-1.9-6.7-2.4-11.3c2.2-0.5,4.3-1.2,6.3-2.1
	c1.6,4,2.2,8.3,2.5,13.5H42.8z M52.9,12.9c4.7,4.6,6.5,10.2,7.1,17.1h-6.4c-0.3-5.8-1.6-10.7-3.5-15.2C51.1,14.2,52,13.6,52.9,12.9
	L52.9,12.9z M50,10.4c-0.5,0.4-1,0.7-1.5,1.1c-0.7-1.2-1.4-2.3-2.2-3.4C47.6,8.8,48.8,9.6,50,10.4L50,10.4z M45.2,13.2
	C43.6,14,41.8,14.6,40,15c-0.5-3.6-1.2-7-2.2-9.6C40.7,6.9,43.2,9.6,45.2,13.2L45.2,13.2z M32.1,4.3C32.2,4.3,32,4.3,32.1,4.3
	c0.1,0,2,0,2.1,0c0.9,1.5,1.3,5.8,2.1,11.4c-1.1,0.1-2.1-0.7-3.1-0.7c-1.1,0-2,0.1-3,0C31,9.4,31.2,5.8,32.1,4.3L32.1,4.3z
	 M20.1,8.1c-0.8,1-1.5,2.2-2.2,3.4c-0.5-0.3-1-0.7-1.5-1.1C17.5,9.6,18.8,8.8,20.1,8.1L20.1,8.1z M23.6,30l-8.4,0
	c0.3-5.1,2.9-9.4,4.5-13.4c2,0.9,4.1,1.6,6.2,2.1C25.4,23.3,23.6,27.3,23.6,30L23.6,30z M25.9,47.2c-2.2,0.5-4.2,1.2-6.2,2.1
	c-1.7-4-4.4-7.8-4.7-12.9h8.6C23.6,39.2,25.4,42.6,25.9,47.2L25.9,47.2z M13.5,53C8.8,48.5,7,43.3,6.4,36.4h6.4
	c0.3,5.8,1.6,10.2,3.5,14.7C15.3,51.7,14.4,52.4,13.5,53L13.5,53z M12.1,30l-5.7,0c0.6-6.9,2.4-12.6,7.1-17.1
	c0.9,0.7,1.8,1.3,2.8,1.9C14.4,19.3,12.4,24.2,12.1,30L12.1,30z M16.4,55.5c0.5-0.4,1-0.7,1.5-1c0.7,1.2,1.4,2.3,2.2,3.4
	C18.8,57.1,17.5,56.3,16.4,55.5L16.4,55.5z M21.3,52.6c1.6-0.7,3.3-1.3,5.1-1.8c0.5,3.5,1.2,6.9,2.2,9.6
	C25.8,59,23.3,56.2,21.3,52.6L21.3,52.6z M26.4,15c-1.7-0.4-3.4-1-5.1-1.8c2-3.6,4.5-6.3,7.3-7.8C27.6,8.1,26.8,11.5,26.4,15
	L26.4,15z M26.4,15"/>
<path fill="#3C4250" d="M36.4,32.1v36.4l8.9-8.6l10.4,15l8.6-6.4l-10.7-15h12.9L36.4,32.1z"/>
</svg>
