<?xml version="1.0" encoding="utf-8"?>
<!-- Generator: Adobe Illustrator 18.0.0, SVG Export Plug-In . SVG Version: 6.00 Build 0)  -->
<!DOCTYPE svg PUBLIC "-//W3C//DTD SVG 1.0//EN" "http://www.w3.org/TR/2001/REC-SVG-20010904/DTD/svg10.dtd">
<svg version="1.0" id="Ebene_1" xmlns="http://www.w3.org/2000/svg" xmlns:xlink="http://www.w3.org/1999/xlink" x="0px" y="0px"
	 viewBox="0 0 75 75" enable-background="new 0 0 75 75" xml:space="preserve">
<path fill="#3C4250" d="M37.5,0C16.8,0,0,16.8,0,37.5S16.8,75,37.5,75S75,58.2,75,37.5S58.2,0,37.5,0z M37.5,29.5c4.4,0,8,3.6,8,8
	c0,4.4-3.6,8-8,8s-8-3.6-8-8C29.5,33.1,33.1,29.5,37.5,29.5z M23.6,8.6l8.6,17.1c-2.6,1.3-5.1,3.9-6.4,6.4L8.6,23.6
	C11.7,17.4,17.4,11.7,23.6,8.6z M51.4,66.4l-8.6-17.1c2.6-1.3,5.1-3.9,6.4-6.4l17.1,8.6C63.6,58.7,57.8,64.5,51.4,66.4z"/>
</svg>
