<?xml version="1.0" encoding="utf-8"?>
<!-- Generator: Adobe Illustrator 18.1.0, SVG Export Plug-In . SVG Version: 6.00 Build 0)  -->
<!DOCTYPE svg PUBLIC "-//W3C//DTD SVG 1.0//EN" "http://www.w3.org/TR/2001/REC-SVG-20010904/DTD/svg10.dtd">
<svg version="1.0" id="Ebene_1" xmlns="http://www.w3.org/2000/svg" xmlns:xlink="http://www.w3.org/1999/xlink" x="0px" y="0px"
	 width="75px" height="75px" viewBox="-442 243 75 75" enable-background="new -442 243 75 75" xml:space="preserve">
<path fill="#3C4250" d="M-413.9,243c-15.5,0-28.1,12.6-28.1,28.2c0,15.6,12.6,28.2,28.1,28.2s28.1-12.6,28.1-28.2
	C-385.8,255.6-398.3,243-413.9,243z M-413.9,248.5c4.3,0,6.4,1.1,6.4,4.5s-5,6.7-6.4,6.7c-1.3,0-6.4-3.2-6.4-6.7
	C-420.2,249.6-418.2,248.5-413.9,248.5z M-432.7,272.1c-3.3-1.1-3.7-3.3-2.3-7.5c1.3-4.1,3-5.7,6.3-4.7c3.3,1.1,4.8,6.9,4.4,8.1
	C-424.8,269.4-429.4,273.2-432.7,272.1z M-419,289.6c-1.9,2.9-4.2,2.7-7.8,0.3c-3.6-2.4-4.7-4.4-2.9-7.3c1.9-2.9,7.8-2.8,9-2.1
	C-419.6,281.2-417.2,286.7-419,289.6z M-413.9,275.4c-2.3,0-4.2-1.9-4.2-4.2c0-2.3,1.9-4.2,4.2-4.2c2.3,0,4.2,1.9,4.2,4.2
	C-409.7,273.5-411.5,275.4-413.9,275.4z M-400.7,289.5c-3.5,2.5-5.8,2.8-7.8,0s0.3-8.4,1.3-9.1c1.1-0.8,7.1-1.1,9,1.7
	C-396.1,284.9-397.1,287-400.7,289.5z M-395.1,272.1c-3.3,1.1-7.9-2.8-8.3-4c-0.4-1.3,1.1-7.1,4.4-8.1c3.3-1.1,4.9,0.5,6.3,4.7
	C-391.4,268.8-391.8,271.1-395.1,272.1z M-369.1,312.1l-2,5.9c-0.5-0.2-11.5-3.9-11.5-14c0-11.8,9.4-14.6,9.4-25.1
	c0-4.8-4.4-9.9-10.1-14.3c-0.9-4-2.5-7.7-4.7-11c9.8,6,21,15.1,21,25.3c0,6.5-2.8,10.6-5.2,14.2c-2.2,3.3-4.2,6.2-4.2,10.9
	C-376.4,309.5-369.2,312-369.1,312.1z"/>
</svg>
