<?xml version="1.0" encoding="utf-8"?>
<!-- Generator: Adobe Illustrator 18.0.0, SVG Export Plug-In . SVG Version: 6.00 Build 0)  -->
<!DOCTYPE svg PUBLIC "-//W3C//DTD SVG 1.0//EN" "http://www.w3.org/TR/2001/REC-SVG-20010904/DTD/svg10.dtd">
<svg version="1.0" id="Ebene_1" xmlns="http://www.w3.org/2000/svg" xmlns:xlink="http://www.w3.org/1999/xlink" x="0px" y="0px"
	 viewBox="0 0 75 75" enable-background="new 0 0 75 75" xml:space="preserve" width="76px" height="76px">
<path fill="#3C4250" d="M28.1,0C12.6,0,0,12.6,0,28.2c0,15.6,12.6,28.2,28.1,28.2c15.5,0,28.1-12.6,28.1-28.2S43.7,0,28.1,0z
	 M28.1,5.5c4.3,0,6.4,1.1,6.4,4.5c0,3.4-5,6.7-6.4,6.7c-1.3,0-6.4-3.2-6.4-6.7C21.8,6.6,23.8,5.5,28.1,5.5z M9.3,29.1
	c-3.3-1.1-3.7-3.3-2.3-7.5c1.3-4.1,3-5.7,6.3-4.7c3.3,1.1,4.8,6.9,4.4,8.1C17.2,26.4,12.6,30.2,9.3,29.1z M23,46.6
	c-1.9,2.9-4.2,2.7-7.8,0.3c-3.6-2.4-4.7-4.4-2.9-7.3c1.9-2.9,7.8-2.8,9-2.1C22.4,38.2,24.8,43.7,23,46.6z M28.1,32.4
	c-2.3,0-4.2-1.9-4.2-4.2c0-2.3,1.9-4.2,4.2-4.2c2.3,0,4.2,1.9,4.2,4.2C32.3,30.5,30.5,32.4,28.1,32.4z M41.3,46.5
	c-3.5,2.5-5.8,2.8-7.8,0c-2-2.8,0.3-8.4,1.3-9.1c1.1-0.8,7.1-1.1,9,1.7C45.9,41.9,44.9,44,41.3,46.5z M46.9,29.1
	c-3.3,1.1-7.9-2.8-8.3-4C38.2,23.8,39.7,18,43,17c3.3-1.1,4.9,0.5,6.3,4.7C50.6,25.8,50.2,28.1,46.9,29.1z M72.9,69.1l-2,5.9
	c-0.5-0.2-11.5-3.9-11.5-14c0-11.8,9.4-14.6,9.4-25.1c0-4.8-4.4-9.9-10.1-14.3c-0.9-4-2.5-7.7-4.7-11c9.8,6,21,15.1,21,25.3
	c0,6.5-2.8,10.6-5.2,14.2c-2.2,3.3-4.2,6.2-4.2,10.9C65.6,66.5,72.8,69,72.9,69.1z"/>
</svg>
