<?xml version="1.0" encoding="utf-8"?>
<!-- Generator: Adobe Illustrator 18.1.0, SVG Export Plug-In . SVG Version: 6.00 Build 0)  -->
<!DOCTYPE svg PUBLIC "-//W3C//DTD SVG 1.0//EN" "http://www.w3.org/TR/2001/REC-SVG-20010904/DTD/svg10.dtd" [
	<!ENTITY ns_extend "http://ns.adobe.com/Extensibility/1.0/">
	<!ENTITY ns_ai "http://ns.adobe.com/AdobeIllustrator/10.0/">
	<!ENTITY ns_graphs "http://ns.adobe.com/Graphs/1.0/">
	<!ENTITY ns_vars "http://ns.adobe.com/Variables/1.0/">
	<!ENTITY ns_imrep "http://ns.adobe.com/ImageReplacement/1.0/">
	<!ENTITY ns_sfw "http://ns.adobe.com/SaveForWeb/1.0/">
	<!ENTITY ns_custom "http://ns.adobe.com/GenericCustomNamespace/1.0/">
	<!ENTITY ns_adobe_xpath "http://ns.adobe.com/XPath/1.0/">
]>
<svg version="1.0" id="Ebene_1" xmlns:x="&ns_extend;" xmlns:i="&ns_ai;" xmlns:graph="&ns_graphs;"
	 xmlns="http://www.w3.org/2000/svg" xmlns:xlink="http://www.w3.org/1999/xlink" x="0px" y="0px" width="75px" height="75px"
	 viewBox="-462 463 75 75" enable-background="new -462 463 75 75" xml:space="preserve">
<metadata>
	<sfw  xmlns="&ns_sfw;">
		<slices></slices>
		<sliceSourceBounds  width="75" height="75" y="0" x="0" bottomLeftOrigin="true"></sliceSourceBounds>
	</sfw>
</metadata>
<path fill="#3C4250" d="M-433.9,463c-15.5,0-28.1,12.6-28.1,28.2c0,15.6,12.6,28.2,28.1,28.2s28.1-12.6,28.1-28.2
	C-405.8,475.6-418.3,463-433.9,463z M-433.9,468.5c4.3,0,6.4,1.1,6.4,4.5s-5,6.7-6.4,6.7c-1.3,0-6.4-3.2-6.4-6.7
	C-440.2,469.6-438.2,468.5-433.9,468.5z M-452.7,492.1c-3.3-1.1-3.7-3.3-2.3-7.5c1.3-4.1,3-5.7,6.3-4.7c3.3,1.1,4.8,6.9,4.4,8.1
	C-444.8,489.4-449.4,493.2-452.7,492.1z M-439,509.6c-1.9,2.9-4.2,2.7-7.8,0.3c-3.6-2.4-4.7-4.4-2.9-7.3c1.9-2.9,7.8-2.8,9-2.1
	C-439.6,501.2-437.2,506.7-439,509.6z M-433.9,495.4c-2.3,0-4.2-1.9-4.2-4.2c0-2.3,1.9-4.2,4.2-4.2c2.3,0,4.2,1.9,4.2,4.2
	C-429.7,493.5-431.5,495.4-433.9,495.4z M-420.7,509.5c-3.5,2.5-5.8,2.8-7.8,0s0.3-8.4,1.3-9.1c1.1-0.8,7.1-1.1,9,1.7
	C-416.1,504.9-417.1,507-420.7,509.5z M-415.1,492.1c-3.3,1.1-7.9-2.8-8.3-4c-0.4-1.3,1.1-7.1,4.4-8.1c3.3-1.1,4.9,0.5,6.3,4.7
	C-411.4,488.8-411.8,491.1-415.1,492.1z M-389.1,532.1l-2,5.9c-0.5-0.2-11.5-3.9-11.5-14c0-11.8,9.4-14.6,9.4-25.1
	c0-4.8-4.4-9.9-10.1-14.3c-0.9-4-2.5-7.7-4.7-11c9.8,6,21,15.1,21,25.3c0,6.5-2.8,10.6-5.2,14.2c-2.2,3.3-4.2,6.2-4.2,10.9
	C-396.4,529.5-389.2,532-389.1,532.1z"/>
</svg>
