<?xml version="1.0" encoding="utf-8"?>
<!-- Generator: Adobe Illustrator 18.0.0, SVG Export Plug-In . SVG Version: 6.00 Build 0)  -->
<!DOCTYPE svg PUBLIC "-//W3C//DTD SVG 1.0//EN" "http://www.w3.org/TR/2001/REC-SVG-20010904/DTD/svg10.dtd">
<svg version="1.0" id="Ebene_1" xmlns="http://www.w3.org/2000/svg" xmlns:xlink="http://www.w3.org/1999/xlink" x="0px" y="0px"
	 viewBox="0 0 75 59.9" enable-background="new 0 0 75 59.9" xml:space="preserve">
<path fill="#3C4250" d="M72.9,6.5H38.6c-1,0-2.6-2.6-2.6-3.3V2.9c0-1.6-1.1-2.4-2.7-2.4H15.1c-1.6,0-2.1,0.1-2.1,1.6v2.1
	c0,0.8-1.3,2.1-2.4,2.1C9.1,6.4,6,7.1,6,8.6v14.9H2.2c0,0-2.9,0.4-2,3.4l6.2,29.9c0,1.6,0.7,2.6,2.3,2.6h64.2c1.6,0,2.1-2.6,2.1-2.6
	l0-48.3C75,7,74.4,6.5,72.9,6.5z M73,27.8v27.8l-6.5-27.9c0-2.2-2-4.3-4.3-4.3H13v-13h60V27.8z"/>
</svg>
