<?xml version="1.0" encoding="utf-8"?>
<!-- Generator: Adobe Illustrator 18.1.0, SVG Export Plug-In . SVG Version: 6.00 Build 0)  -->
<!DOCTYPE svg PUBLIC "-//W3C//DTD SVG 1.0//EN" "http://www.w3.org/TR/2001/REC-SVG-20010904/DTD/svg10.dtd" [
	<!ENTITY ns_extend "http://ns.adobe.com/Extensibility/1.0/">
	<!ENTITY ns_ai "http://ns.adobe.com/AdobeIllustrator/10.0/">
	<!ENTITY ns_graphs "http://ns.adobe.com/Graphs/1.0/">
	<!ENTITY ns_vars "http://ns.adobe.com/Variables/1.0/">
	<!ENTITY ns_imrep "http://ns.adobe.com/ImageReplacement/1.0/">
	<!ENTITY ns_sfw "http://ns.adobe.com/SaveForWeb/1.0/">
	<!ENTITY ns_custom "http://ns.adobe.com/GenericCustomNamespace/1.0/">
	<!ENTITY ns_adobe_xpath "http://ns.adobe.com/XPath/1.0/">
]>
<svg version="1.0" id="Ebene_1" xmlns:x="&ns_extend;" xmlns:i="&ns_ai;" xmlns:graph="&ns_graphs;"
	 xmlns="http://www.w3.org/2000/svg" xmlns:xlink="http://www.w3.org/1999/xlink" x="0px" y="0px" width="75px" height="59.9px"
	 viewBox="-462 471.1 75 59.9" enable-background="new -462 471.1 75 59.9" xml:space="preserve">
<metadata>
	<sfw  xmlns="&ns_sfw;">
		<slices></slices>
		<sliceSourceBounds  width="75" height="58.9" y="0.5" x="0" bottomLeftOrigin="true"></sliceSourceBounds>
	</sfw>
</metadata>
<path fill="#3C4250" d="M-389.1,477.6h-34.3c-1,0-2.6-2.6-2.6-3.3V474c0-1.6-1.1-2.4-2.7-2.4h-18.2c-1.6,0-2.1,0.1-2.1,1.6v2.1
	c0,0.8-1.3,2.1-2.4,2.1c-1.5,0.1-4.6,0.8-4.6,2.3v14.9h-3.8c0,0-2.9,0.4-2,3.4l6.2,29.9c0,1.6,0.7,2.6,2.3,2.6h64.2
	c1.6,0,2.1-2.6,2.1-2.6v-48.3C-387,478.1-387.6,477.6-389.1,477.6z M-389,498.9v27.8l-6.5-27.9c0-2.2-2-4.3-4.3-4.3H-449v-13h60
	V498.9z"/>
</svg>
