<?xml version="1.0" encoding="utf-8"?>
<!-- Generator: Adobe Illustrator 18.1.0, SVG Export Plug-In . SVG Version: 6.00 Build 0)  -->
<!DOCTYPE svg PUBLIC "-//W3C//DTD SVG 1.0//EN" "http://www.w3.org/TR/2001/REC-SVG-20010904/DTD/svg10.dtd">
<svg version="1.0" id="Ebene_1" xmlns="http://www.w3.org/2000/svg" xmlns:xlink="http://www.w3.org/1999/xlink" x="0px" y="0px"
	 width="75px" height="60px" viewBox="-442 251 75 60" enable-background="new -442 251 75 60" xml:space="preserve">
<g>
	<path fill="#3c4250" d="M-369.1,257.1h-34.3c-1,0-2.6-2.6-2.6-3.4v-0.3c0-1.6-1.1-2.4-2.7-2.4h-18.2c-1.6,0-2.1,0.1-2.1,1.6v2.1
		c0,0.8-1.3,2.1-2.4,2.1c-1.5,0.1-4.6,0.8-4.6,2.3v15.2h-3.8c0,0-2.9,0.4-2,3.5l6.2,30.6c0,1.6,0.7,2.6,2.3,2.6h64.2
		c1.6,0,2.1-2.6,2.1-2.6v-49.3C-367,257.6-367.6,257.1-369.1,257.1z M-369,278.8v28.3l-6.5-28.4c0-2.2-2-4.4-4.3-4.4H-429v-13.2h60
		V278.8z"/>
</g>
</svg>
