<?xml version="1.0" encoding="utf-8"?>
<!-- Generator: Adobe Illustrator 18.1.0, SVG Export Plug-In . SVG Version: 6.00 Build 0)  -->
<!DOCTYPE svg PUBLIC "-//W3C//DTD SVG 1.0//EN" "http://www.w3.org/TR/2001/REC-SVG-20010904/DTD/svg10.dtd" [
	<!ENTITY ns_extend "http://ns.adobe.com/Extensibility/1.0/">
	<!ENTITY ns_ai "http://ns.adobe.com/AdobeIllustrator/10.0/">
	<!ENTITY ns_graphs "http://ns.adobe.com/Graphs/1.0/">
	<!ENTITY ns_vars "http://ns.adobe.com/Variables/1.0/">
	<!ENTITY ns_imrep "http://ns.adobe.com/ImageReplacement/1.0/">
	<!ENTITY ns_sfw "http://ns.adobe.com/SaveForWeb/1.0/">
	<!ENTITY ns_custom "http://ns.adobe.com/GenericCustomNamespace/1.0/">
	<!ENTITY ns_adobe_xpath "http://ns.adobe.com/XPath/1.0/">
]>
<svg version="1.0" id="Ebene_1" xmlns:x="&ns_extend;" xmlns:i="&ns_ai;" xmlns:graph="&ns_graphs;"
	 xmlns="http://www.w3.org/2000/svg" xmlns:xlink="http://www.w3.org/1999/xlink" x="0px" y="0px" width="75.4px" height="60px"
	 viewBox="-461 471 75.4 60" enable-background="new -461 471 75.4 60" xml:space="preserve">
<metadata>
	<sfw  xmlns="&ns_sfw;">
		<slices></slices>
		<sliceSourceBounds  width="75.5" height="60" y="0" x="0.2" bottomLeftOrigin="true"></sliceSourceBounds>
	</sfw>
</metadata>
<g>
	<path fill="#3C4250" d="M-460.5,531h21v-60h-21.3L-460.5,531z M-456.5,477h13v28h-13V477z M-450.2,510.3c3.6,0,6.4,3,6.4,6.6
		c0,3.7-2.9,6.6-6.4,6.6c-3.6,0-6.4-3-6.4-6.6C-456.6,513.3-453.7,510.3-450.2,510.3z"/>
	<path fill="#3C4250" d="M-434.5,531h21v-60h-21V531z M-423.4,523.6c-3.6,0-6.4-3-6.4-6.6c0-3.7,2.9-6.6,6.4-6.6
		c3.6,0,6.4,3,6.4,6.6C-416.9,520.6-419.8,523.6-423.4,523.6z M-430.5,477h13v28h-13V477z"/>
	<path fill="#3C4250" d="M-385.3,471h-21.2v60h21L-385.3,471z M-396.6,523.6c-3.6,0-6.4-3-6.4-6.6c0-3.7,2.9-6.6,6.4-6.6
		c3.6,0,6.4,3,6.4,6.6C-390.1,520.6-393,523.6-396.6,523.6z M-389.5,505h-13v-28h13V505z"/>
</g>
</svg>
