<?xml version="1.0" encoding="utf-8"?>
<!-- Generator: Adobe Illustrator 18.0.0, SVG Export Plug-In . SVG Version: 6.00 Build 0)  -->
<!DOCTYPE svg PUBLIC "-//W3C//DTD SVG 1.0//EN" "http://www.w3.org/TR/2001/REC-SVG-20010904/DTD/svg10.dtd">
<svg version="1.0" id="Ebene_1" xmlns="http://www.w3.org/2000/svg" xmlns:xlink="http://www.w3.org/1999/xlink" x="0px" y="0px"
	 viewBox="0 0 75.4 60" enable-background="new 0 0 75.4 60" xml:space="preserve">
<g>
	<path fill="#1D1D1B" d="M0.5,60h21V0L0.2,0L0.5,60z M4.5,6h13v28h-13V6z M10.8,39.3c3.6,0,6.4,3,6.4,6.6c0,3.7-2.9,6.6-6.4,6.6
		c-3.6,0-6.4-3-6.4-6.6C4.4,42.3,7.3,39.3,10.8,39.3z"/>
	<path fill="#1D1D1B" d="M26.5,60h21V0h-21V60z M37.6,52.6c-3.6,0-6.4-3-6.4-6.6c0-3.7,2.9-6.6,6.4-6.6c3.6,0,6.4,3,6.4,6.6
		C44.1,49.6,41.2,52.6,37.6,52.6z M30.5,6h13v28h-13V6z"/>
	<path fill="#1D1D1B" d="M75.7,0L54.5,0v60h21L75.7,0z M64.4,52.6c-3.6,0-6.4-3-6.4-6.6c0-3.7,2.9-6.6,6.4-6.6c3.6,0,6.4,3,6.4,6.6
		C70.9,49.6,68,52.6,64.4,52.6z M71.5,34h-13V6h13V34z"/>
</g>
</svg>
