<?xml version="1.0" encoding="utf-8"?>
<!-- Generator: Adobe Illustrator 18.0.0, SVG Export Plug-In . SVG Version: 6.00 Build 0)  -->
<!DOCTYPE svg PUBLIC "-//W3C//DTD SVG 1.0//EN" "http://www.w3.org/TR/2001/REC-SVG-20010904/DTD/svg10.dtd">
<svg version="1.0" id="Ebene_1" xmlns="http://www.w3.org/2000/svg" xmlns:xlink="http://www.w3.org/1999/xlink" x="0px" y="0px"
	 width="75px" height="60px" viewBox="0 0 75 60" enable-background="new 0 0 75 60" xml:space="preserve">
<g>
	<path fill="#3C4250" d="M0,60h21V0L0,0V60z M11.1,52.6c-3.6,0-6.4-3-6.4-6.6c0-3.7,2.9-6.6,6.4-6.6c3.6,0,6.4,3,6.4,6.6
		C17.5,49.6,14.6,52.6,11.1,52.6z M4,6h13v28H4V6z"/>
	<path fill="#3C4250" d="M27,60h21V0H27V60z M31,6h13v28H31V6z M37.2,39.4c3.6,0,6.4,3,6.4,6.6c0,3.7-2.9,6.6-6.4,6.6
		c-3.6,0-6.4-3-6.4-6.6C30.8,42.3,33.7,39.4,37.2,39.4z"/>
	<path fill="#3C4250" d="M54,0v60h21V0L54,0z M64.5,52.6c-3.6,0-6.4-3-6.4-6.6c0-3.7,2.9-6.6,6.4-6.6c3.6,0,6.4,3,6.4,6.6
		C71,49.7,68.1,52.6,64.5,52.6z M71,34H58V6h13V34z"/>
</g>
</svg>
