<?xml version="1.0" encoding="utf-8"?>
<!-- Generator: Adobe Illustrator 18.0.0, SVG Export Plug-In . SVG Version: 6.00 Build 0)  -->
<!DOCTYPE svg PUBLIC "-//W3C//DTD SVG 1.0//EN" "http://www.w3.org/TR/2001/REC-SVG-20010904/DTD/svg10.dtd">
<svg version="1.0" id="Ebene_1" xmlns="http://www.w3.org/2000/svg" xmlns:xlink="http://www.w3.org/1999/xlink" x="0px" y="0px"
	 viewBox="0 0 57.4 75" enable-background="new 0 0 57.4 75" xml:space="preserve" width="58px" height="76px">
<g>
	<path fill="#3C4250" d="M54.4,0H2.6C1.1,0,0,1.6,0,3v69c0,1.4,1.7,3,2.6,3h51.8c1.5,0,2.6-1.7,2.6-3V3C57,1.3,55.5,0,54.4,0z
		 M28.5,72.5c-1.4,0-2.5-1.1-2.5-2.4c0-1.3,1.1-2.4,2.5-2.4c1.4,0,2.5,1.1,2.5,2.4C30.9,71.4,29.8,72.5,28.5,72.5z M53,64H4V4h49V64
		z"/>
	<rect x="10" y="11" fill="#3C4250" width="37" height="15"/>
	<rect x="10" y="30" fill="#3C4250" width="37" height="4"/>
	<rect x="10" y="39" fill="#3C4250" width="37" height="4"/>
	<rect x="10" y="47" fill="#3C4250" width="37" height="4"/>
</g>
</svg>
