<?xml version="1.0" encoding="utf-8"?>
<!-- Generator: Adobe Illustrator 18.1.0, SVG Export Plug-In . SVG Version: 6.00 Build 0)  -->
<!DOCTYPE svg PUBLIC "-//W3C//DTD SVG 1.0//EN" "http://www.w3.org/TR/2001/REC-SVG-20010904/DTD/svg10.dtd" [
	<!ENTITY ns_extend "http://ns.adobe.com/Extensibility/1.0/">
	<!ENTITY ns_ai "http://ns.adobe.com/AdobeIllustrator/10.0/">
	<!ENTITY ns_graphs "http://ns.adobe.com/Graphs/1.0/">
	<!ENTITY ns_vars "http://ns.adobe.com/Variables/1.0/">
	<!ENTITY ns_imrep "http://ns.adobe.com/ImageReplacement/1.0/">
	<!ENTITY ns_sfw "http://ns.adobe.com/SaveForWeb/1.0/">
	<!ENTITY ns_custom "http://ns.adobe.com/GenericCustomNamespace/1.0/">
	<!ENTITY ns_adobe_xpath "http://ns.adobe.com/XPath/1.0/">
]>
<svg version="1.0" id="Ebene_1" xmlns:x="&ns_extend;" xmlns:i="&ns_ai;" xmlns:graph="&ns_graphs;"
	 xmlns="http://www.w3.org/2000/svg" xmlns:xlink="http://www.w3.org/1999/xlink" x="0px" y="0px" width="57.4px" height="75px"
	 viewBox="-470 463 57.4 75" enable-background="new -470 463 57.4 75" xml:space="preserve">
<metadata>
	<sfw  xmlns="&ns_sfw;">
		<slices></slices>
		<sliceSourceBounds  width="57" height="75" y="0" x="0" bottomLeftOrigin="true"></sliceSourceBounds>
	</sfw>
</metadata>
<g>
	<path fill="#3C4250" d="M-415.6,463h-51.8c-1.5,0-2.6,1.6-2.6,3v69c0,1.4,1.7,3,2.6,3h51.8c1.5,0,2.6-1.7,2.6-3v-69
		C-413,464.3-414.5,463-415.6,463z M-441.5,535.5c-1.4,0-2.5-1.1-2.5-2.4c0-1.3,1.1-2.4,2.5-2.4s2.5,1.1,2.5,2.4
		C-439.1,534.4-440.2,535.5-441.5,535.5z M-417,527h-49v-60h49V527z"/>
	<rect x="-460" y="474" fill="#3C4250" width="37" height="15"/>
	<rect x="-460" y="493" fill="#3C4250" width="37" height="4"/>
	<rect x="-460" y="502" fill="#3C4250" width="37" height="4"/>
	<rect x="-460" y="510" fill="#3C4250" width="37" height="4"/>
</g>
</svg>
