<?xml version="1.0" encoding="utf-8"?>
<!-- Generator: Adobe Illustrator 18.0.0, SVG Export Plug-In . SVG Version: 6.00 Build 0)  -->
<!DOCTYPE svg PUBLIC "-//W3C//DTD SVG 1.0//EN" "http://www.w3.org/TR/2001/REC-SVG-20010904/DTD/svg10.dtd">
<svg version="1.0" id="Ebene_1" xmlns="http://www.w3.org/2000/svg" xmlns:xlink="http://www.w3.org/1999/xlink" x="0px" y="0px"
	 width="54px" height="75px" viewBox="0 0 54 75" enable-background="new 0 0 54 75" xml:space="preserve">
<g>
	<path fill="#3C4250" d="M49.6,0L49.6,0L4.3,0C1.9,0,0,2.1,0,4.6l0,66.1C0,73.2,1.9,75,4.3,75h45.3c2.4,0,4.3-1.2,4.3-4.3l0-66.1
		C54,2.1,52,0,49.6,0z M49.6,4c0,0,0.2,0.1,0.3,0.1c0,0,0.1,0.1,0.1,0.2V15L39.7,4H49.6z M27,71.5c-1.3,0-2.3-1.1-2.3-2.4
		c0-1.3,1-2.4,2.3-2.4c1.3,0,2.3,1.1,2.3,2.4C29.3,70.4,28.3,71.5,27,71.5z M4,64V4h33v13.1c-1,0,1.5-0.1,1.9-0.1H50v47H4z"/>
	<rect x="11" y="30" fill="#3C4250" width="32" height="4"/>
	<rect x="11" y="39" fill="#3C4250" width="32" height="4"/>
	<polygon fill="#3C4250" points="10.8,47 10.8,51 43,51 43,47.1 42.5,47 	"/>
	<rect x="11" y="56" fill="#3C4250" width="32" height="4"/>
	<path fill="#3C4250" d="M15,24h4v2h4.7l-4.3-15h-4.3l-4.3,14.8l4.2-0.1V24z M17,14.6l2.4,6.4h-4.3L17,14.6z"/>
	<rect x="26" y="21" fill="#3C4250" width="17" height="5"/>
</g>
</svg>
