<?xml version="1.0" encoding="utf-8"?>
<!-- Generator: Adobe Illustrator 18.0.0, SVG Export Plug-In . SVG Version: 6.00 Build 0)  -->
<!DOCTYPE svg PUBLIC "-//W3C//DTD SVG 1.0//EN" "http://www.w3.org/TR/2001/REC-SVG-20010904/DTD/svg10.dtd">
<svg version="1.0" id="Ebene_1" xmlns="http://www.w3.org/2000/svg" xmlns:xlink="http://www.w3.org/1999/xlink" x="0px" y="0px"
	 viewBox="0 0 53.6 75" enable-background="new 0 0 53.6 75" xml:space="preserve">
<path fill="#1D1D1B" d="M49.3,0h-45C1.9,0,0,2.1,0,4.6l0,66.1C0,73.2,1.9,75,4.3,75h45c2.4,0.1,4.3-1.2,4.3-4.3l0-66.1
	C53.6,2.1,51.7,0,49.3,0L49.3,0z M26.8,71.5c-1.3,0-2.3-1.1-2.3-2.4c0-1.3,1-2.4,2.3-2.4c1.3,0,2.3,1.1,2.3,2.4
	C29.1,70.4,28.1,71.5,26.8,71.5L26.8,71.5z M49.3,64.3C49.3,64.5,49.5,63.8,49.3,64.3h-45c-0.2,0,0,0.2,0,0v-60c0-0.2-0.2,0,0,0
	h32.2v12.9c-0.1,0,1.8,0,2.1,0h10.7V64.3z M49.3,15L39.4,4.2h9.8c0.2,0,0.1-0.1,0.1,0.1V15z M49.3,15"/>
<path fill="#1D1D1B" d="M10.7,30h32.2v4.3H10.7V30z"/>
<path fill="#1D1D1B" d="M42.9,38.6H10.7v4.3h32.2V38.6L42.9,38.6z M42.9,38.6"/>
<path fill="#1D1D1B" d="M42.2,47.2H10.7l0,4.3h32.2v-4.3L42.2,47.2z"/>
<path fill="#1D1D1B" d="M10.7,55.7h32.2V60H10.7V55.7z"/>
<path fill="#1D1D1B" d="M19.3,10.7H15l-4.3,14.9l4.3,0.1v-2.1h4.3v2.1h4.3L19.3,10.7z M15,21.4l1.9-6.4l2.4,6.4H15z"/>
<path fill="#1D1D1B" d="M42.9,25.7H25.7v-4.3h17.1V25.7z"/>
</svg>
