<?xml version="1.0" encoding="utf-8"?>
<!-- Generator: Adobe Illustrator 18.1.0, SVG Export Plug-In . SVG Version: 6.00 Build 0)  -->
<!DOCTYPE svg PUBLIC "-//W3C//DTD SVG 1.0//EN" "http://www.w3.org/TR/2001/REC-SVG-20010904/DTD/svg10.dtd" [
	<!ENTITY ns_extend "http://ns.adobe.com/Extensibility/1.0/">
	<!ENTITY ns_ai "http://ns.adobe.com/AdobeIllustrator/10.0/">
	<!ENTITY ns_graphs "http://ns.adobe.com/Graphs/1.0/">
	<!ENTITY ns_vars "http://ns.adobe.com/Variables/1.0/">
	<!ENTITY ns_imrep "http://ns.adobe.com/ImageReplacement/1.0/">
	<!ENTITY ns_sfw "http://ns.adobe.com/SaveForWeb/1.0/">
	<!ENTITY ns_custom "http://ns.adobe.com/GenericCustomNamespace/1.0/">
	<!ENTITY ns_adobe_xpath "http://ns.adobe.com/XPath/1.0/">
]>
<svg version="1.0" id="Ebene_1" xmlns:x="&ns_extend;" xmlns:i="&ns_ai;" xmlns:graph="&ns_graphs;"
	 xmlns="http://www.w3.org/2000/svg" xmlns:xlink="http://www.w3.org/1999/xlink" x="0px" y="0px" width="53.6px" height="75px"
	 viewBox="-472 463 53.6 75" enable-background="new -472 463 53.6 75" xml:space="preserve">
<metadata>
	<sfw  xmlns="&ns_sfw;">
		<slices></slices>
		<sliceSourceBounds  width="53.6" height="75" y="0" x="0" bottomLeftOrigin="true"></sliceSourceBounds>
	</sfw>
</metadata>
<path fill="#3C4250" d="M-422.7,463h-45c-2.4,0-4.3,2.1-4.3,4.6v66.1c0,2.5,1.9,4.3,4.3,4.3h45c2.4,0.1,4.3-1.2,4.3-4.3v-66.1
	C-418.4,465.1-420.3,463-422.7,463L-422.7,463z M-445.2,534.5c-1.3,0-2.3-1.1-2.3-2.4c0-1.3,1-2.4,2.3-2.4c1.3,0,2.3,1.1,2.3,2.4
	C-442.9,533.4-443.9,534.5-445.2,534.5L-445.2,534.5z M-422.7,527.3C-422.7,527.5-422.5,526.8-422.7,527.3h-45c-0.2,0,0,0.2,0,0v-60
	c0-0.2-0.2,0,0,0h32.2v12.9c-0.1,0,1.8,0,2.1,0h10.7V527.3z M-422.7,478l-9.9-10.8h9.8c0.2,0,0.1-0.1,0.1,0.1V478z"/>
<path fill="#3C4250" d="M-461.3,493h32.2v4.3h-32.2V493z"/>
<path fill="#3C4250" d="M-429.1,501.6h-32.2v4.3h32.2V501.6L-429.1,501.6z"/>
<path fill="#3C4250" d="M-429.8,510.2h-31.5v4.3h32.2v-4.3H-429.8z"/>
<path fill="#3C4250" d="M-461.3,518.7h32.2v4.3h-32.2V518.7z"/>
<path fill="#3C4250" d="M-452.7,473.7h-4.3l-4.3,14.9l4.3,0.1v-2.1h4.3v2.1h4.3L-452.7,473.7z M-457,484.4l1.9-6.4l2.4,6.4H-457z"/>
<path fill="#3C4250" d="M-429.1,488.7h-17.2v-4.3h17.1v4.3H-429.1z"/>
</svg>
