<?xml version="1.0" encoding="utf-8"?>
<!-- Generator: Adobe Illustrator 18.1.0, SVG Export Plug-In . SVG Version: 6.00 Build 0)  -->
<!DOCTYPE svg PUBLIC "-//W3C//DTD SVG 1.0//EN" "http://www.w3.org/TR/2001/REC-SVG-20010904/DTD/svg10.dtd" [
	<!ENTITY ns_extend "http://ns.adobe.com/Extensibility/1.0/">
	<!ENTITY ns_ai "http://ns.adobe.com/AdobeIllustrator/10.0/">
	<!ENTITY ns_graphs "http://ns.adobe.com/Graphs/1.0/">
	<!ENTITY ns_vars "http://ns.adobe.com/Variables/1.0/">
	<!ENTITY ns_imrep "http://ns.adobe.com/ImageReplacement/1.0/">
	<!ENTITY ns_sfw "http://ns.adobe.com/SaveForWeb/1.0/">
	<!ENTITY ns_custom "http://ns.adobe.com/GenericCustomNamespace/1.0/">
	<!ENTITY ns_adobe_xpath "http://ns.adobe.com/XPath/1.0/">
]>
<svg version="1.0" id="Ebene_1" xmlns:x="&ns_extend;" xmlns:i="&ns_ai;" xmlns:graph="&ns_graphs;"
	 xmlns="http://www.w3.org/2000/svg" xmlns:xlink="http://www.w3.org/1999/xlink" x="0px" y="0px" width="57.9px" height="75px"
	 viewBox="-470 463 57.9 75" enable-background="new -470 463 57.9 75" xml:space="preserve">
<metadata>
	<sfw  xmlns="&ns_sfw;">
		<slices></slices>
		<sliceSourceBounds  width="57.8" height="75" y="0" x="0" bottomLeftOrigin="true"></sliceSourceBounds>
	</sfw>
</metadata>
<path fill="#3C4250" d="M-420.7,484.4h-40.7v-15h40.7C-420.7,469.4-420.7,484.4-420.7,484.4z"/>
<path fill="#3C4250" d="M-440,523h-21.4v-36.4h21.4V523z"/>
<path fill="#3C4250" d="M-420.7,499.4h-15v-12.8h15V499.4z"/>
<path fill="#3C4250" d="M-420.7,523h-15v-19.3h15V523z"/>
<path fill="#3C4250" d="M-415.2,463H-467c-1.4,0-3,1.6-3,3v69c0,1.4,2.1,3,3,3h51.8c1.5,0,3-1.7,3-3v-69
	C-412.1,464.3-414,463-415.2,463L-415.2,463z M-441.1,535.5c-1.4,0-2.5-1.1-2.5-2.4c0-1.3,1.1-2.4,2.5-2.4s2.5,1.1,2.5,2.4
	C-438.6,534.4-439.7,535.5-441.1,535.5L-441.1,535.5z M-416.4,527.3h-49.3c-0.2,0,0.1,0.1,0,0v-60h49.3V527.3z"/>
</svg>
