<?xml version="1.0" encoding="utf-8"?>
<!-- Generator: Adobe Illustrator 18.0.0, SVG Export Plug-In . SVG Version: 6.00 Build 0)  -->
<!DOCTYPE svg PUBLIC "-//W3C//DTD SVG 1.0//EN" "http://www.w3.org/TR/2001/REC-SVG-20010904/DTD/svg10.dtd">
<svg version="1.0" id="Ebene_1" xmlns="http://www.w3.org/2000/svg" xmlns:xlink="http://www.w3.org/1999/xlink" x="0px" y="0px"
	 viewBox="0 0 57.9 75" enable-background="new 0 0 57.9 75" xml:space="preserve">
<path fill="#1D1D1B" d="M49.3,21.4H8.6v-15h40.7V21.4z"/>
<path fill="#1D1D1B" d="M30,60H8.6V23.6H30V60z"/>
<path fill="#1D1D1B" d="M49.3,36.4h-15V23.6h15V36.4z"/>
<path fill="#1D1D1B" d="M49.3,60h-15V40.7h15V60z"/>
<path fill="#1D1D1B" d="M54.8,0H3C1.6,0,0,1.6,0,3v69c0,1.4,2.1,3,3,3h51.8c1.5,0,3-1.7,3-3V3C57.9,1.3,56,0,54.8,0L54.8,0z
	 M28.9,72.5c-1.4,0-2.5-1.1-2.5-2.4s1.1-2.4,2.5-2.4c1.4,0,2.5,1.1,2.5,2.4S30.3,72.5,28.9,72.5L28.9,72.5z M53.6,64.3H4.3
	c-0.2,0,0.1,0.1,0,0v-60h49.3V64.3z"/>
</svg>
