<?xml version="1.0" encoding="utf-8"?>
<!-- Generator: Adobe Illustrator 18.0.0, SVG Export Plug-In . SVG Version: 6.00 Build 0)  -->
<!DOCTYPE svg PUBLIC "-//W3C//DTD SVG 1.0//EN" "http://www.w3.org/TR/2001/REC-SVG-20010904/DTD/svg10.dtd">
<svg version="1.0" id="Ebene_1" xmlns="http://www.w3.org/2000/svg" xmlns:xlink="http://www.w3.org/1999/xlink" x="0px" y="0px"
	 width="57px" height="74px" viewBox="0 0 57 74" enable-background="new 0 0 57 74" xml:space="preserve">
<g>
	<rect x="9" y="7" fill="#3C4250" width="40" height="14"/>
	<rect x="9" y="24" fill="#3C4250" width="21" height="36"/>
	<rect x="34" y="24" fill="#3C4250" width="15" height="12"/>
	<rect x="34" y="41" fill="#3C4250" width="15" height="19"/>
	<path fill="#3C4250" d="M55,0H4C2.6,0,0,1.5,0,3V71c0,1.4,3.1,3,4,3h51c1.5,0,2-1.7,2-3V3C57,1.3,56.1,0,55,0z M29.5,71.6
		c-1.3,0-2.4-1.1-2.4-2.4s1.1-2.4,2.4-2.4c1.3,0,2.4,1.1,2.4,2.4S30.8,71.6,29.5,71.6z M53,64H5V5h48V64z"/>
</g>
</svg>
